<svg width="101" height="101" viewBox="0 0 101 101" fill="none" xmlns="http://www.w3.org/2000/svg">
<circle cx="50.5" cy="50.5" r="49.5" fill="white" stroke="#F41112" stroke-width="2"/>
<path d="M49.3983 32.9705C50.2518 32.9705 50.9631 32.2592 50.9631 31.4057V27.5648C50.9631 26.7113 50.2518 26 49.3983 26C48.5448 26 47.8335 26.7113 47.8335 27.5648V31.4057C47.8335 32.2592 48.5448 32.9705 49.3983 32.9705Z" fill="url(#paint0_linear)"/>
<path d="M42.0009 33.1603C42.238 33.7768 42.8545 34.1087 43.4235 34.1087C43.6132 34.1087 43.8028 34.0613 44.0399 33.9664C44.846 33.6345 45.2254 32.7335 44.8934 31.9274L43.4235 28.3711C43.0915 27.5649 42.1906 27.1856 41.3845 27.5175C40.5784 27.8495 40.199 28.7504 40.531 29.5565L42.0009 33.1603Z" fill="url(#paint1_linear)"/>
<path d="M54.7092 34.0137C54.8989 34.1086 55.0886 34.156 55.3257 34.156C55.9421 34.156 56.5111 33.7766 56.7482 33.2076L58.2182 29.6512C58.5501 28.8451 58.1708 27.9442 57.3646 27.6123C56.5585 27.2803 55.6576 27.6597 55.3257 28.4658L53.8557 32.0222C53.5712 32.7809 53.9505 33.6818 54.7092 34.0137Z" fill="url(#paint2_linear)"/>
<path d="M63.3393 39.6093H60.7313V38.329C60.7313 37.4754 60.02 36.7642 59.1665 36.7642H39.6301C38.7766 36.7642 38.0653 37.4754 38.0653 38.329V39.6093H35.4573C32.9916 39.6093 31 41.6008 31 44.0666V47.1488C31 50.0413 32.7071 52.5545 35.4099 53.5977L41.1001 55.8263C41.764 56.7273 42.5701 57.6282 43.4236 58.3869L46.411 60.9949V65.4048H45.0832C43.2813 65.4048 41.8588 66.8274 41.8588 68.6293V70.2415C41.8588 70.6683 42.1907 71.0002 42.6175 71.0002H56.1791C56.6059 71.0002 56.9378 70.6683 56.9378 70.2415V68.6293C56.9378 66.8274 55.5153 65.4048 53.7134 65.4048H52.3857V60.9949L55.373 58.3869C56.2266 57.6282 57.0327 56.7747 57.6965 55.8263L63.3867 53.5977C66.0422 52.5545 67.7966 49.9939 67.7966 47.1488V44.0666C67.7492 41.6008 65.7576 39.6093 63.3393 39.6093ZM36.5479 50.7051C35.078 50.1361 34.1296 48.7136 34.1296 47.1488V44.0666C34.1296 43.3553 34.6986 42.7389 35.4573 42.7389H38.0653V46.6272C38.0653 48.3817 38.3498 50.0413 38.9189 51.6535L36.5479 50.7051ZM49.3983 54.6409C45.6523 54.6409 42.5701 51.6061 42.5701 47.8126C42.5701 44.0192 45.6523 41.0318 49.3983 41.0318C53.1444 41.0318 56.2266 44.0666 56.2266 47.86C56.2266 51.6535 53.1444 54.6409 49.3983 54.6409ZM64.667 47.1488C64.667 48.7136 63.7187 50.1361 62.2487 50.7051L59.9252 51.6061C60.4468 49.9939 60.7787 48.2868 60.7787 46.5798V42.7389H63.3867C64.098 42.7389 64.7144 43.3079 64.7144 44.0666V47.1488H64.667Z" fill="url(#paint3_linear)"/>
<path d="M51.1052 45.2517L48.5447 47.8123L47.6437 46.9113C47.1221 46.3897 46.2212 46.3897 45.6996 46.9113C45.1779 47.4329 45.1779 48.3339 45.6996 48.8555L47.5963 50.7522C47.8808 51.0367 48.2127 51.179 48.5921 51.179C48.924 51.179 49.3033 51.0367 49.5879 50.7522L53.0968 47.2432C53.6184 46.7216 53.6184 45.8207 53.0968 45.2991C52.5278 44.7301 51.6268 44.7301 51.1052 45.2517Z" fill="url(#paint4_linear)"/>
<defs>
<linearGradient id="paint0_linear" x1="49.3983" y1="26" x2="49.3983" y2="32.9705" gradientUnits="userSpaceOnUse">
<stop stop-color="#F41112"/>
<stop offset="1" stop-color="#F41112" stop-opacity="0.41"/>
</linearGradient>
<linearGradient id="paint1_linear" x1="42.7122" y1="27.3975" x2="42.7122" y2="34.1087" gradientUnits="userSpaceOnUse">
<stop stop-color="#F41112"/>
<stop offset="1" stop-color="#F41112" stop-opacity="0.41"/>
</linearGradient>
<linearGradient id="paint2_linear" x1="56.0497" y1="27.4922" x2="56.0497" y2="34.156" gradientUnits="userSpaceOnUse">
<stop stop-color="#F41112"/>
<stop offset="1" stop-color="#F41112" stop-opacity="0.41"/>
</linearGradient>
<linearGradient id="paint3_linear" x1="49.3983" y1="36.7642" x2="49.3983" y2="71.0002" gradientUnits="userSpaceOnUse">
<stop stop-color="#F41112"/>
<stop offset="1" stop-color="#F41112" stop-opacity="0.41"/>
</linearGradient>
<linearGradient id="paint4_linear" x1="49.3982" y1="44.8662" x2="49.3982" y2="51.179" gradientUnits="userSpaceOnUse">
<stop stop-color="#F41112"/>
<stop offset="1" stop-color="#F41112" stop-opacity="0.41"/>
</linearGradient>
</defs>
</svg>
