<svg width="101" height="101" viewBox="0 0 101 101" fill="none" xmlns="http://www.w3.org/2000/svg">
<circle cx="50.5" cy="50.5" r="49.5" fill="white" stroke="#F41112" stroke-width="2"/>
<path d="M63.8299 50.4999C63.8299 43.1508 57.8505 37.1714 50.5013 37.1714C43.1503 37.1714 37.1709 43.1508 37.1709 50.4999C37.1709 57.8491 43.1503 63.8285 50.5013 63.8285C57.8505 63.8285 63.8299 57.8491 63.8299 50.4999ZM51.2063 57.9616V60.4929H49.6726V58.0347C48.2607 58.0103 46.801 57.5725 45.9469 56.9622L46.5319 55.3319C47.4094 55.915 48.6741 56.3781 50.0382 56.3781C51.766 56.3781 52.9342 55.3806 52.9342 53.9931C52.9342 52.6534 51.9845 51.8256 50.1835 51.0962C47.701 50.1221 46.1672 49.0027 46.1672 46.884C46.1672 44.8646 47.6026 43.3299 49.8423 42.9652V40.507H51.3517V42.8677C52.8114 42.9174 53.8107 43.3064 54.5157 43.7199L53.9092 45.3258C53.3964 45.0343 52.3998 44.499 50.8417 44.499C48.9676 44.499 48.2607 45.6183 48.2607 46.5924C48.2607 47.858 49.1616 48.4909 51.2804 49.3665C53.7873 50.3893 55.0529 51.655 55.0529 53.8225C55.0529 55.7453 53.7142 57.5472 51.2063 57.9616Z" fill="url(#paint0_linear)"/>
<path d="M48.332 35.9281V32.2306C48.332 32.0993 48.226 31.9943 48.0957 31.9943H36.6019V28.2368C36.6019 28.1402 36.5438 28.054 36.4556 28.0183C36.3656 27.9818 36.2644 28.0005 36.1969 28.069L28.0696 36.1972C27.9768 36.29 27.9768 36.439 28.0696 36.5318L36.1969 44.6591C36.2428 44.7041 36.3019 44.7285 36.3647 44.7285C36.3956 44.7285 36.4256 44.7229 36.4556 44.7097C36.5447 44.6732 36.6019 44.5869 36.6019 44.4913V40.7338H39.4772C41.7254 38.1987 44.8257 36.4484 48.332 35.9281Z" fill="url(#paint1_linear)"/>
<path d="M72.9312 64.4677L64.8039 56.3395C64.7364 56.272 64.6342 56.2513 64.5461 56.2879C64.4579 56.3245 64.3998 56.4117 64.3998 56.5073V60.2648H61.5254C59.2773 62.7998 56.176 64.5511 52.6707 65.0714V68.768C52.6707 68.8983 52.7766 69.0043 52.9069 69.0043H64.4008V72.7618C64.4008 72.8584 64.4589 72.9446 64.547 72.9812C64.5751 72.9934 64.6051 72.9999 64.6361 72.9999C64.698 72.9999 64.758 72.9765 64.8039 72.9306L72.9312 64.8033C73.023 64.7095 73.023 64.5605 72.9312 64.4677Z" fill="url(#paint2_linear)"/>
<defs>
<linearGradient id="paint0_linear" x1="50.5004" y1="37.1714" x2="50.5004" y2="63.8285" gradientUnits="userSpaceOnUse">
<stop stop-color="#F41112"/>
<stop offset="1" stop-color="#F41112" stop-opacity="0.41"/>
</linearGradient>
<linearGradient id="paint1_linear" x1="38.166" y1="28" x2="38.166" y2="44.7285" gradientUnits="userSpaceOnUse">
<stop stop-color="#F41112"/>
<stop offset="1" stop-color="#F41112" stop-opacity="0.41"/>
</linearGradient>
<linearGradient id="paint2_linear" x1="62.8354" y1="56.27" x2="62.8354" y2="72.9999" gradientUnits="userSpaceOnUse">
<stop stop-color="#F41112"/>
<stop offset="1" stop-color="#F41112" stop-opacity="0.41"/>
</linearGradient>
</defs>
</svg>
