<svg width="101" height="101" viewBox="0 0 101 101" fill="none" xmlns="http://www.w3.org/2000/svg">
<circle cx="50.5" cy="50.5" r="49.5" fill="white" stroke="#F41112" stroke-width="2"/>
<path d="M71 28H29.75C28.7554 28 27.8016 28.3951 27.0983 29.0983C26.3951 29.8016 26 30.7554 26 31.75V58C26 58.9946 26.3951 59.9484 27.0983 60.6516C27.8016 61.3549 28.7554 61.75 29.75 61.75H52.25C52.25 64.7337 53.4353 67.5952 55.545 69.705C57.6548 71.8147 60.5163 73 63.5 73C66.4837 73 69.3452 71.8147 71.455 69.705C73.5647 67.5952 74.75 64.7337 74.75 61.75V31.75C74.75 30.7554 74.3549 29.8016 73.6516 29.0983C72.9484 28.3951 71.9946 28 71 28ZM29.75 31.75H41V39.25H29.75V31.75ZM29.75 46.75H37.25V48.625H29.75V46.75ZM48.5 54.25H29.75V52.375H48.5V54.25ZM48.5 48.625H41V46.75H48.5V48.625ZM63.5 46.75H71V48.625H63.5V46.75ZM52.25 46.75H59.75V48.625H52.25V46.75ZM63.5 71.125C61.6458 71.125 59.8332 70.5752 58.2915 69.545C56.7498 68.5149 55.5482 67.0507 54.8386 65.3377C54.1291 63.6246 53.9434 61.7396 54.3051 59.921C54.6669 58.1025 55.5598 56.432 56.8709 55.1209C58.182 53.8098 59.8525 52.9169 61.671 52.5551C63.4896 52.1934 65.3746 52.3791 67.0877 53.0886C68.8007 53.7982 70.2649 54.9998 71.295 56.5415C72.3252 58.0832 72.875 59.8958 72.875 61.75C72.875 64.2364 71.8873 66.621 70.1291 68.3791C68.371 70.1373 65.9864 71.125 63.5 71.125Z" fill="url(#paint0_linear)"/>
<path d="M64.8313 59.1063L62.1688 61.7501L59.525 59.1063L56.8625 61.7501L59.525 64.3938L62.1688 67.0563L64.8313 64.3938L67.4751 61.7501L70.1376 59.1063L67.4751 56.4438L64.8313 59.1063Z" fill="url(#paint1_linear)"/>
<defs>
<linearGradient id="paint0_linear" x1="50.375" y1="28" x2="50.375" y2="73" gradientUnits="userSpaceOnUse">
<stop stop-color="#F41112"/>
<stop offset="1" stop-color="#F41112" stop-opacity="0"/>
<stop offset="1" stop-color="#F41112" stop-opacity="0.41"/>
</linearGradient>
<linearGradient id="paint1_linear" x1="63.5001" y1="56.4438" x2="63.5001" y2="67.0563" gradientUnits="userSpaceOnUse">
<stop stop-color="#F41112"/>
<stop offset="1" stop-color="#F41112" stop-opacity="0"/>
<stop offset="1" stop-color="#F41112" stop-opacity="0.41"/>
</linearGradient>
</defs>
</svg>
