<svg width="101" height="101" viewBox="0 0 101 101" fill="none" xmlns="http://www.w3.org/2000/svg">
<circle cx="50.5" cy="50.5" r="49.5" fill="white" stroke="#F41112" stroke-width="2"/>
<path d="M31.5955 65.1289H33.8164V71.4047C33.8164 72.2858 34.5308 73.0002 35.4119 73.0002C36.2931 73.0002 37.0074 72.2858 37.0074 71.4047V65.1289H39.2283C40.1094 65.1289 40.8238 64.4145 40.8238 63.5333V50.7394C40.8238 49.8583 40.1094 49.1439 39.2283 49.1439H37.0074V42.7684C37.0074 41.8872 36.2931 41.1729 35.4119 41.1729C34.5308 41.1729 33.8164 41.8872 33.8164 42.7684V49.1439H31.5955C30.7144 49.1439 30 49.8583 30 50.7394V63.5333C30 64.4146 30.7144 65.1289 31.5955 65.1289Z" fill="url(#paint0_linear)"/>
<path d="M46.1099 51.956H48.3308V58.2318C48.3308 59.1129 49.0452 59.8273 49.9263 59.8273C50.8075 59.8273 51.5219 59.1129 51.5219 58.2318V51.956H53.7427C54.6239 51.956 55.3382 51.2416 55.3382 50.3605V37.5666C55.3382 36.6854 54.6239 35.971 53.7427 35.971H51.5219V29.5955C51.5219 28.7144 50.8075 28 49.9263 28C49.0452 28 48.3308 28.7144 48.3308 29.5955V35.971H46.1099C45.2288 35.971 44.5144 36.6854 44.5144 37.5666V50.3605C44.5144 51.2417 45.2288 51.956 46.1099 51.956Z" fill="url(#paint1_linear)"/>
<path d="M60.6245 61.4791H62.8453V67.7549C62.8453 68.636 63.5597 69.3504 64.4409 69.3504C65.322 69.3504 66.0364 68.636 66.0364 67.7549V61.4791H68.2574C69.1385 61.4791 69.8529 60.7647 69.8529 59.8835V47.0895C69.8529 46.2084 69.1385 45.494 68.2574 45.494H66.0365V39.1185C66.0365 38.2373 65.3221 37.5229 64.441 37.5229C63.5598 37.5229 62.8454 38.2373 62.8454 39.1185V45.494H60.6246C59.7434 45.494 59.0291 46.2084 59.0291 47.0895V59.8835C59.029 60.7647 59.7432 61.4791 60.6245 61.4791Z" fill="url(#paint2_linear)"/>
<defs>
<linearGradient id="paint0_linear" x1="35.4119" y1="41.1729" x2="35.4119" y2="73.0002" gradientUnits="userSpaceOnUse">
<stop stop-color="#F41112"/>
<stop offset="1" stop-color="#F41112" stop-opacity="0.41"/>
</linearGradient>
<linearGradient id="paint1_linear" x1="49.9263" y1="28" x2="49.9263" y2="59.8273" gradientUnits="userSpaceOnUse">
<stop stop-color="#F41112"/>
<stop offset="1" stop-color="#F41112" stop-opacity="0.41"/>
</linearGradient>
<linearGradient id="paint2_linear" x1="64.441" y1="37.5229" x2="64.441" y2="69.3504" gradientUnits="userSpaceOnUse">
<stop stop-color="#F41112"/>
<stop offset="1" stop-color="#F41112" stop-opacity="0.41"/>
</linearGradient>
</defs>
</svg>
