<svg width="11" height="11" viewBox="0 0 11 11" fill="none" xmlns="http://www.w3.org/2000/svg">
<path d="M5.21194 0.489014C4.18112 0.489014 3.17344 0.794689 2.31634 1.36738C1.45924 1.94008 0.791217 2.75407 0.396738 3.70643C0.00225825 4.65879 -0.100956 5.70674 0.100148 6.71775C0.301252 7.72877 0.797642 8.65745 1.52654 9.38635C2.25545 10.1153 3.18413 10.6116 4.19515 10.8128C5.20616 11.0139 6.25411 10.9106 7.20647 10.5162C8.15883 10.1217 8.97282 9.45365 9.54552 8.59655C10.1182 7.73946 10.4239 6.73178 10.4239 5.70096C10.4239 4.31866 9.87477 2.99298 8.89734 2.01556C7.91991 1.03813 6.59424 0.489014 5.21194 0.489014ZM9.27167 3.83955H7.49775C7.23831 2.92244 6.78793 2.07052 6.17615 1.33968C6.8497 1.49006 7.47945 1.79387 8.01637 2.22747C8.55328 2.66107 8.98287 3.21275 9.27167 3.83955ZM5.19147 9.99336C4.50885 9.3133 3.9989 8.47975 3.7042 7.56236H6.71968C6.42445 8.47993 5.91385 9.3135 5.23056 9.99336C5.22486 9.99745 5.21803 9.99965 5.21101 9.99965C5.204 9.99965 5.19716 9.99745 5.19147 9.99336ZM3.5162 6.8178C3.37969 6.07949 3.37969 5.32242 3.5162 4.58411H6.90769C7.0442 5.32242 7.0442 6.07949 6.90769 6.8178H3.5162ZM0.744565 5.70096C0.743975 5.32417 0.791515 4.94885 0.886033 4.58411H2.76047C2.63893 5.32371 2.63893 6.0782 2.76047 6.8178H0.886033C0.791515 6.45306 0.743975 6.07774 0.744565 5.70096ZM5.21194 1.4011C5.21852 1.39851 5.22584 1.39851 5.23242 1.4011C5.91604 2.08329 6.42606 2.91949 6.71968 3.83955H3.7042C3.99944 2.92198 4.51004 2.08841 5.19333 1.40855C5.1984 1.40385 5.20503 1.4012 5.21194 1.4011ZM7.66342 4.58411H9.53786C9.72651 5.31672 9.72651 6.08519 9.53786 6.8178H7.66342C7.78496 6.0782 7.78496 5.32371 7.66342 4.58411ZM4.24774 1.33968C3.63666 2.07099 3.18636 2.92275 2.92614 3.83955H1.15221C1.44102 3.21275 1.87061 2.66107 2.40752 2.22747C2.94443 1.79387 3.57418 1.49006 4.24774 1.33968ZM1.15221 7.56236H2.92614C3.18558 8.47948 3.63596 9.33139 4.24774 10.0622C3.57418 9.91185 2.94443 9.60804 2.40752 9.17444C1.87061 8.74084 1.44102 8.18916 1.15221 7.56236ZM6.17801 10.0622C6.78843 9.33075 7.23808 8.47901 7.49775 7.56236H9.27167C8.98287 8.18916 8.55328 8.74084 8.01637 9.17444C7.47945 9.60804 6.8497 9.91185 6.17615 10.0622H6.17801Z" fill="white"/>
</svg>
