<svg width="41" height="35" viewBox="0 0 41 35" fill="none" xmlns="http://www.w3.org/2000/svg">
<path d="M1.06436 23.3073H4.88036C5.79236 23.3073 6.59636 23.4833 7.29236 23.8353C7.99636 24.1793 8.54036 24.6673 8.92436 25.2993C9.31636 25.9313 9.51236 26.6673 9.51236 27.5073C9.51236 28.3473 9.31636 29.0833 8.92436 29.7153C8.54036 30.3473 7.99636 30.8393 7.29236 31.1913C6.59636 31.5353 5.79236 31.7073 4.88036 31.7073H1.06436V23.3073ZM4.78436 30.1113C5.62436 30.1113 6.29236 29.8793 6.78836 29.4153C7.29236 28.9433 7.54436 28.3073 7.54436 27.5073C7.54436 26.7073 7.29236 26.0753 6.78836 25.6113C6.29236 25.1393 5.62436 24.9033 4.78436 24.9033H3.00836V30.1113H4.78436ZM17.1704 28.5033C17.1704 28.5273 17.1584 28.6953 17.1344 29.0073H12.2504C12.3384 29.4073 12.5464 29.7233 12.8744 29.9553C13.2024 30.1873 13.6104 30.3033 14.0984 30.3033C14.4344 30.3033 14.7304 30.2553 14.9864 30.1593C15.2504 30.0553 15.4944 29.8953 15.7184 29.6793L16.7144 30.7593C16.1064 31.4553 15.2184 31.8033 14.0504 31.8033C13.3224 31.8033 12.6784 31.6633 12.1184 31.3833C11.5584 31.0953 11.1264 30.6993 10.8224 30.1953C10.5184 29.6913 10.3664 29.1193 10.3664 28.4793C10.3664 27.8473 10.5144 27.2793 10.8104 26.7753C11.1144 26.2633 11.5264 25.8673 12.0464 25.5873C12.5744 25.2993 13.1624 25.1553 13.8104 25.1553C14.4424 25.1553 15.0144 25.2913 15.5264 25.5633C16.0384 25.8353 16.4384 26.2273 16.7264 26.7393C17.0224 27.2433 17.1704 27.8313 17.1704 28.5033ZM13.8224 26.5713C13.3984 26.5713 13.0424 26.6913 12.7544 26.9313C12.4664 27.1713 12.2904 27.4993 12.2264 27.9153H15.4064C15.3424 27.5073 15.1664 27.1833 14.8784 26.9433C14.5904 26.6953 14.2384 26.5713 13.8224 26.5713ZM18.4167 22.8033H20.2887V31.7073H18.4167V22.8033ZM22.0261 25.2513H23.8981V31.7073H22.0261V25.2513ZM22.9621 24.3513C22.6181 24.3513 22.3381 24.2513 22.1221 24.0513C21.9061 23.8513 21.7981 23.6033 21.7981 23.3073C21.7981 23.0113 21.9061 22.7633 22.1221 22.5633C22.3381 22.3633 22.6181 22.2633 22.9621 22.2633C23.3061 22.2633 23.5861 22.3593 23.8021 22.5513C24.0181 22.7433 24.1261 22.9833 24.1261 23.2713C24.1261 23.5833 24.0181 23.8433 23.8021 24.0513C23.5861 24.2513 23.3061 24.3513 22.9621 24.3513ZM28.7075 31.8033C28.0275 31.8033 27.4155 31.6633 26.8715 31.3833C26.3355 31.0953 25.9155 30.6993 25.6115 30.1953C25.3075 29.6913 25.1555 29.1193 25.1555 28.4793C25.1555 27.8393 25.3075 27.2673 25.6115 26.7633C25.9155 26.2593 26.3355 25.8673 26.8715 25.5873C27.4155 25.2993 28.0275 25.1553 28.7075 25.1553C29.3875 25.1553 29.9955 25.2993 30.5315 25.5873C31.0675 25.8673 31.4875 26.2593 31.7915 26.7633C32.0955 27.2673 32.2475 27.8393 32.2475 28.4793C32.2475 29.1193 32.0955 29.6913 31.7915 30.1953C31.4875 30.6993 31.0675 31.0953 30.5315 31.3833C29.9955 31.6633 29.3875 31.8033 28.7075 31.8033ZM28.7075 30.2673C29.1875 30.2673 29.5795 30.1073 29.8835 29.7873C30.1955 29.4593 30.3515 29.0233 30.3515 28.4793C30.3515 27.9353 30.1955 27.5033 29.8835 27.1833C29.5795 26.8553 29.1875 26.6913 28.7075 26.6913C28.2275 26.6913 27.8315 26.8553 27.5195 27.1833C27.2075 27.5033 27.0515 27.9353 27.0515 28.4793C27.0515 29.0233 27.2075 29.4593 27.5195 29.7873C27.8315 30.1073 28.2275 30.2673 28.7075 30.2673ZM37.4228 25.1553C38.2228 25.1553 38.8668 25.3953 39.3548 25.8753C39.8508 26.3553 40.0988 27.0673 40.0988 28.0113V31.7073H38.2268V28.2993C38.2268 27.7873 38.1148 27.4073 37.8908 27.1593C37.6668 26.9033 37.3428 26.7753 36.9188 26.7753C36.4468 26.7753 36.0708 26.9233 35.7908 27.2193C35.5108 27.5073 35.3708 27.9393 35.3708 28.5153V31.7073H33.4988V25.2513H35.2868V26.0073C35.5348 25.7353 35.8428 25.5273 36.2108 25.3833C36.5788 25.2313 36.9828 25.1553 37.4228 25.1553Z" fill="white"/>
<mask id="mask0" mask-type="alpha" maskUnits="userSpaceOnUse" x="11" y="0" width="19" height="16">
<rect x="11" width="18.1757" height="15.8049" fill="#C4C4C4"/>
</mask>
<g mask="url(#mask0)">
<circle cx="11.3951" cy="11.4586" r="11.4586" fill="#F41112"/>
<circle cx="29.5709" cy="11.4586" r="11.4586" fill="#3EC100" fill-opacity="0.5"/>
<circle cx="29.5709" cy="11.4586" r="11.4586" fill="#3EC100" fill-opacity="0.45"/>
</g>
</svg>
