<svg width="7" height="5" viewBox="0 0 7 5" fill="none" xmlns="http://www.w3.org/2000/svg">
<path d="M5.92974 1.29173C5.88448 1.24674 5.82327 1.22149 5.75946 1.22149C5.69565 1.22149 5.63443 1.24674 5.58917 1.29173L3.36221 3.50662L1.13766 1.26999C1.09145 1.23042 1.03202 1.20975 0.971228 1.21209C0.910439 1.21444 0.852774 1.23964 0.809758 1.28266C0.766742 1.32567 0.741542 1.38334 0.739194 1.44413C0.736846 1.50492 0.757523 1.56435 0.797093 1.61056L3.36221 4.19017L5.92974 1.6323C5.97473 1.58704 5.99998 1.52582 5.99998 1.46201C5.99998 1.3982 5.97473 1.33699 5.92974 1.29173Z" fill="white" stroke="white"/>
</svg>
