<svg width="57" height="49" viewBox="0 0 57 49" fill="none" xmlns="http://www.w3.org/2000/svg">
<path d="M54.7755 44.6179H52.5845V11.7525C52.5845 10.5431 51.6029 9.56152 50.3935 9.56152H41.6294C40.42 9.56152 39.4384 10.5431 39.4384 11.7525V44.6179H35.0563V27.0897C35.0563 25.8802 34.0748 24.8987 32.8653 24.8987H24.1012C22.8918 24.8987 21.9102 25.8802 21.9102 27.0897V44.6179H17.5282V33.6628C17.5282 32.4533 16.5466 31.4717 15.3371 31.4717H6.57306C5.36362 31.4717 4.38204 32.4533 4.38204 33.6628V44.6179H2.19102C0.981578 44.6179 0 45.5994 0 46.8089C0 48.0183 0.981578 48.9999 2.19102 48.9999H54.7755C55.985 48.9999 56.9666 48.0183 56.9666 46.8089C56.9666 45.5994 55.985 44.6179 54.7755 44.6179Z" fill="#525252"/>
<path d="M18.9216 18.3257C19.4825 18.3257 20.0434 18.1121 20.4706 17.6837L30.6742 7.48015V8.38832C30.6742 9.59777 31.6558 10.5793 32.8652 10.5793C34.0747 10.5793 35.0563 9.59777 35.0563 8.38832V2.19102C35.0563 0.981578 34.0747 0 32.8652 0H26.6679C25.4585 0 24.4769 0.981578 24.4769 2.19102C24.4769 3.40046 25.4585 4.38204 26.6679 4.38204H27.5761L17.3736 14.5845C16.518 15.4401 16.518 16.827 17.3736 17.6826C17.8009 18.111 18.3618 18.3257 18.9216 18.3257Z" fill="#525252"/>
</svg>
