<svg width="43" height="49" viewBox="0 0 43 49" fill="none" xmlns="http://www.w3.org/2000/svg">
<path d="M23.0496 23.9652C23.0496 22.9339 22.2246 22.1089 21.1933 22.1089C20.162 22.1089 19.3369 22.9339 19.3369 23.9652C19.3369 24.6872 19.7494 25.3059 20.3682 25.6153L19.9041 27.5233C19.801 27.8842 20.0588 28.1936 20.4198 28.1936H22.0183C22.3793 28.1936 22.6371 27.8842 22.534 27.5233L22.0699 25.6153C22.6371 25.3059 23.0496 24.6872 23.0496 23.9652Z" fill="#525252"/>
<path d="M21.1935 12.8784C19.5434 12.8784 18.1511 14.2191 18.1511 15.9208V18.9116H24.2358V15.9208C24.2358 14.2707 22.8436 12.8784 21.1935 12.8784Z" fill="#525252"/>
<path d="M41.5617 4.4733L21.4512 0.038674C21.2965 -0.0128913 21.1418 -0.0128913 20.9871 0.038674L0.876612 4.4733C0.360958 4.57643 0 5.04052 0 5.55617V16.6943C0 27.3683 5.05341 37.372 13.6648 43.663L20.5746 48.768C20.9871 49.0773 21.5028 49.0773 21.9153 48.768L28.825 43.663C37.3849 37.372 42.4383 27.3168 42.4383 16.6943V5.55617C42.4383 5.04052 42.0773 4.57643 41.5617 4.4733ZM29.8564 30.3076C29.8564 30.8748 29.3923 31.3904 28.7735 31.3904H13.6133C13.046 31.3904 12.5304 30.9263 12.5304 30.3076V19.9945C12.5304 19.4273 12.9945 18.9116 13.6133 18.9116H15.1602V15.9208C15.1602 12.5691 17.8932 9.8361 21.2449 9.8361C24.5967 9.8361 27.2781 12.6206 27.2781 15.9208V18.9116H28.825C29.3923 18.9116 29.9079 19.3757 29.9079 19.9945V30.3076H29.8564Z" fill="#525252"/>
</svg>
