<svg width="56" height="49" viewBox="0 0 56 49" fill="none" xmlns="http://www.w3.org/2000/svg">
<path d="M23.6399 15.9248L24.3499 22.0498H32.3199L34.4699 15.9248H23.6399Z" fill="#525252"/>
<path d="M53 0H3C2.20435 0 1.44129 0.387186 0.87868 1.07638C0.316071 1.76558 0 2.70033 0 3.675V37.975C0 38.9497 0.316071 39.8844 0.87868 40.5736C1.44129 41.2628 2.20435 41.65 3 41.65H24.82L24.15 46.55H22C21.7348 46.55 21.4804 46.6791 21.2929 46.9088C21.1054 47.1385 21 47.4501 21 47.775C21 48.0999 21.1054 48.4115 21.2929 48.6412C21.4804 48.8709 21.7348 49 22 49H34C34.2652 49 34.5196 48.8709 34.7071 48.6412C34.8946 48.4115 35 48.0999 35 47.775C35 47.4501 34.8946 47.1385 34.7071 46.9088C34.5196 46.6791 34.2652 46.55 34 46.55H31.85L31.18 41.65H53C53.7957 41.65 54.5587 41.2628 55.1213 40.5736C55.6839 39.8844 56 38.9497 56 37.975V3.675C56 2.70033 55.6839 1.76558 55.1213 1.07638C54.5587 0.387186 53.7957 0 53 0ZM4 28.175C4 27.8501 4.10536 27.5385 4.29289 27.3088C4.48043 27.0791 4.73478 26.95 5 26.95C5.19778 26.95 5.39112 27.0218 5.55557 27.1564C5.72002 27.2911 5.84819 27.4824 5.92388 27.7062C5.99957 27.9301 6.01937 28.1764 5.98079 28.414C5.9422 28.6516 5.84696 28.8699 5.70711 29.0412C5.56725 29.2125 5.38907 29.3292 5.19509 29.3765C5.00111 29.4237 4.80004 29.3995 4.61732 29.3068C4.43459 29.214 4.27841 29.057 4.16853 28.8556C4.05865 28.6541 4 28.4173 4 28.175ZM8 28.175C8 27.8501 8.10536 27.5385 8.29289 27.3088C8.48043 27.0791 8.73478 26.95 9 26.95H15C15.2652 26.95 15.5196 27.0791 15.7071 27.3088C15.8946 27.5385 16 27.8501 16 28.175C16 28.4999 15.8946 28.8115 15.7071 29.0412C15.5196 29.2709 15.2652 29.4 15 29.4H9C8.73478 29.4 8.48043 29.2709 8.29289 29.0412C8.10536 28.8115 8 28.4999 8 28.175ZM31.69 24.8553C31.8801 25.0862 31.9909 25.3973 32 25.725C32.0094 25.8063 32.0094 25.8887 32 25.97C31.9891 26.0467 31.9688 26.1211 31.94 26.1905C31.9181 26.2686 31.8878 26.3427 31.85 26.411C31.8131 26.4752 31.773 26.5365 31.73 26.5947C31.6342 26.7113 31.5201 26.8028 31.3947 26.8639C31.2692 26.9249 31.135 26.9542 31 26.95C30.8693 26.9481 30.7402 26.9148 30.62 26.852C30.4988 26.79 30.3872 26.703 30.29 26.5947L30.17 26.411C30.1322 26.3427 30.1019 26.2686 30.08 26.1905C30.0442 26.1225 30.0172 26.0481 30 25.97C29.9956 25.8884 29.9956 25.8066 30 25.725C30.0037 25.4007 30.1073 25.09 30.29 24.8553C30.3872 24.747 30.4988 24.66 30.62 24.598C30.7402 24.5352 30.8693 24.5019 31 24.5H26C26.0663 24.4874 26.1337 24.4874 26.2 24.5C26.2626 24.5134 26.3233 24.5382 26.38 24.5735C26.4446 24.5978 26.5054 24.635 26.56 24.6838L26.71 24.8308C26.8975 25.0716 27.0014 25.3922 27 25.725C27.0094 25.8063 27.0094 25.8887 27 25.97C26.9891 26.0467 26.9688 26.1211 26.94 26.1905C26.92 26.2658 26.8896 26.3362 26.85 26.3988C26.8154 26.4688 26.7752 26.5345 26.73 26.5947L26.58 26.7418C26.5254 26.7905 26.4646 26.8277 26.4 26.852C26.3433 26.8873 26.2826 26.9121 26.22 26.9255L26 26.95H25.81C25.7438 26.9386 25.6795 26.9138 25.62 26.8765C25.5586 26.852 25.5011 26.8147 25.45 26.7662L25.3 26.6192C25.2513 26.5596 25.2077 26.4939 25.17 26.4233C25.1304 26.3607 25.1 26.2903 25.08 26.215C25.0477 26.1363 25.021 26.0543 25 25.97C24.9956 25.8884 24.9956 25.8066 25 25.725C25.0005 25.5629 25.0273 25.4026 25.0788 25.2533C25.1303 25.104 25.2055 24.9687 25.3 24.8553L25.45 24.7082C25.5011 24.6598 25.5586 24.6225 25.62 24.598C25.6795 24.5607 25.7438 24.5359 25.81 24.5245C25.872 24.5049 25.936 24.4967 26 24.5H23.5C23.2573 24.5029 23.0221 24.3977 22.8381 24.2038C22.6541 24.01 22.534 23.7408 22.5 23.4465L20.9 9.8H19C18.7348 9.8 18.4804 9.67094 18.2929 9.44121C18.1054 9.21147 18 8.89989 18 8.575C18 8.25011 18.1054 7.93853 18.2929 7.70879C18.4804 7.47906 18.7348 7.35 19 7.35H21.75C21.9927 7.34707 22.2279 7.45234 22.4119 7.64616C22.5959 7.83999 22.716 8.10916 22.75 8.4035L23.35 13.475H37C37.2652 13.475 37.5196 13.6041 37.7071 13.8338C37.8946 14.0635 38 14.3751 38 14.7C38 15.0249 37.8946 15.3365 37.7071 15.5662C37.5196 15.7959 37.2652 15.925 37 15.925H36.66L33.9 23.7528C33.8248 23.9704 33.6998 24.1567 33.5401 24.2893C33.3805 24.4219 33.1929 24.4951 33 24.5H31C31.2578 24.5106 31.5034 24.637 31.69 24.8553ZM41 8.575C41 8.25011 41.1054 7.93853 41.2929 7.70879C41.4804 7.47906 41.7348 7.35 42 7.35C42.1978 7.35 42.3911 7.42184 42.5556 7.55645C42.72 7.69105 42.8482 7.88237 42.9239 8.10621C42.9996 8.33005 43.0194 8.57636 42.9808 8.81399C42.9422 9.05161 42.847 9.26989 42.7071 9.44121C42.5673 9.61253 42.3891 9.7292 42.1951 9.77646C42.0011 9.82373 41.8 9.79947 41.6173 9.70675C41.4346 9.61404 41.2784 9.45702 41.1685 9.25557C41.0586 9.05412 41 8.81728 41 8.575ZM46 17.15H51C51.2652 17.15 51.5196 17.2791 51.7071 17.5088C51.8946 17.7385 52 18.0501 52 18.375C52 18.6999 51.8946 19.0115 51.7071 19.2412C51.5196 19.4709 51.2652 19.6 51 19.6H46C45.7348 19.6 45.4804 19.4709 45.2929 19.2412C45.1054 19.0115 45 18.6999 45 18.375C45 18.0501 45.1054 17.7385 45.2929 17.5088C45.4804 17.2791 45.7348 17.15 46 17.15ZM45 13.475C45 13.1501 45.1054 12.8385 45.2929 12.6088C45.4804 12.3791 45.7348 12.25 46 12.25H51C51.2652 12.25 51.5196 12.3791 51.7071 12.6088C51.8946 12.8385 52 13.1501 52 13.475C52 13.7999 51.8946 14.1115 51.7071 14.3412C51.5196 14.5709 51.2652 14.7 51 14.7H46C45.7348 14.7 45.4804 14.5709 45.2929 14.3412C45.1054 14.1115 45 13.7999 45 13.475ZM51 9.8H46C45.7348 9.8 45.4804 9.67094 45.2929 9.44121C45.1054 9.21147 45 8.89989 45 8.575C45 8.25011 45.1054 7.93853 45.2929 7.70879C45.4804 7.47906 45.7348 7.35 46 7.35H51C51.2652 7.35 51.5196 7.47906 51.7071 7.70879C51.8946 7.93853 52 8.25011 52 8.575C52 8.89989 51.8946 9.21147 51.7071 9.44121C51.5196 9.67094 51.2652 9.8 51 9.8ZM28 37.975C27.8022 37.975 27.6089 37.9032 27.4444 37.7686C27.28 37.6339 27.1518 37.4426 27.0761 37.2188C27.0004 36.9949 26.9806 36.7486 27.0192 36.511C27.0578 36.2734 27.153 36.0551 27.2929 35.8838C27.4327 35.7125 27.6109 35.5958 27.8049 35.5485C27.9989 35.5013 28.2 35.5255 28.3827 35.6183C28.5654 35.711 28.7216 35.868 28.8315 36.0694C28.9414 36.2709 29 36.5077 29 36.75C29 37.0749 28.8946 37.3865 28.7071 37.6162C28.5196 37.8459 28.2652 37.975 28 37.975ZM53 34.3H3C2.73478 34.3 2.48043 34.1709 2.29289 33.9412C2.10536 33.7115 2 33.3999 2 33.075C2 32.7501 2.10536 32.4385 2.29289 32.2088C2.48043 31.9791 2.73478 31.85 3 31.85H53C53.2652 31.85 53.5196 31.9791 53.7071 32.2088C53.8946 32.4385 54 32.7501 54 33.075C54 33.3999 53.8946 33.7115 53.7071 33.9412C53.5196 34.1709 53.2652 34.3 53 34.3Z" fill="#525252"/>
</svg>
