<svg width="53" height="49" viewBox="0 0 53 49" fill="none" xmlns="http://www.w3.org/2000/svg">
<path d="M48.9742 15.7676H45.4761C45.4783 18.575 44.8633 21.3487 43.6745 23.8921C44.1349 24.3918 44.4397 25.0149 44.5518 25.6851C44.6639 26.3552 44.5783 27.0436 44.3056 27.6659C44.033 28.2883 43.5849 28.8178 43.0162 29.1897C42.4476 29.5616 41.7829 29.7599 41.1034 29.7602H11.369C10.6895 29.7599 10.0248 29.5616 9.45617 29.1897C8.8875 28.8178 8.43945 28.2883 8.16675 27.6659C7.89406 27.0436 7.80852 26.3552 7.9206 25.6851C8.03268 25.0149 8.33752 24.3918 8.79787 23.8921C7.60915 21.3487 6.99411 18.575 6.99632 15.7676H3.49816C2.57039 15.7676 1.68062 16.1361 1.02459 16.7922C0.368555 17.4482 0 18.338 0 19.2657V45.5019C0 46.4297 0.368555 47.3195 1.02459 47.9755C1.68062 48.6315 2.57039 49.0001 3.49816 49.0001H48.9742C49.902 49.0001 50.7918 48.6315 51.4478 47.9755C52.1038 47.3195 52.4724 46.4297 52.4724 45.5019V19.2657C52.4724 18.338 52.1038 17.4482 51.4478 16.7922C50.7918 16.1361 49.902 15.7676 48.9742 15.7676ZM31.4834 43.7529C31.1375 43.7529 30.7993 43.6503 30.5117 43.4581C30.2241 43.2659 29.9999 42.9927 29.8675 42.6731C29.7351 42.3535 29.7005 42.0018 29.768 41.6625C29.8355 41.3233 30.002 41.0116 30.2467 40.767C30.4913 40.5224 30.8029 40.3558 31.1422 40.2883C31.4815 40.2208 31.8332 40.2555 32.1528 40.3878C32.4724 40.5202 32.7456 40.7444 32.9377 41.032C33.1299 41.3197 33.2325 41.6578 33.2325 42.0038C33.2325 42.4677 33.0482 42.9125 32.7202 43.2406C32.3922 43.5686 31.9473 43.7529 31.4834 43.7529ZM38.4798 43.7529C38.1338 43.7529 37.7957 43.6503 37.508 43.4581C37.2204 43.2659 36.9962 42.9927 36.8638 42.6731C36.7314 42.3535 36.6968 42.0018 36.7643 41.6625C36.8318 41.3233 36.9984 41.0116 37.243 40.767C37.4876 40.5224 37.7992 40.3558 38.1385 40.2883C38.4778 40.2208 38.8295 40.2555 39.1491 40.3878C39.4687 40.5202 39.7419 40.7444 39.9341 41.032C40.1263 41.3197 40.2288 41.6578 40.2288 42.0038C40.2288 42.4677 40.0446 42.9125 39.7165 43.2406C39.3885 43.5686 38.9436 43.7529 38.4798 43.7529ZM45.4761 43.7529C45.1301 43.7529 44.792 43.6503 44.5043 43.4581C44.2167 43.2659 43.9925 42.9927 43.8601 42.6731C43.7278 42.3535 43.6931 42.0018 43.7606 41.6625C43.8281 41.3233 43.9947 41.0116 44.2393 40.767C44.4839 40.5224 44.7956 40.3558 45.1348 40.2883C45.4741 40.2208 45.8258 40.2555 46.1454 40.3878C46.465 40.5202 46.7382 40.7444 46.9304 41.032C47.1226 41.3197 47.2252 41.6578 47.2252 42.0038C47.2252 42.4677 47.0409 42.9125 46.7129 43.2406C46.3849 43.5686 45.94 43.7529 45.4761 43.7529Z" fill="#525252"/>
<path d="M26.2361 26.262C25.7722 26.262 25.3273 26.0777 24.9993 25.7497C24.6713 25.4217 24.487 24.9768 24.487 24.5129H21.8634C21.3995 24.5129 20.9546 24.3286 20.6266 24.0006C20.2986 23.6726 20.1143 23.2277 20.1143 22.7638C20.1143 22.2999 20.2986 21.855 20.6266 21.527C20.9546 21.199 21.3995 21.0147 21.8634 21.0147H27.1107C27.5745 21.0147 28.0194 20.8304 28.3474 20.5024C28.6755 20.1744 28.8597 19.7295 28.8597 19.2656C28.8597 18.8018 28.6755 18.3569 28.3474 18.0289C28.0194 17.7008 27.5745 17.5166 27.1107 17.5166H25.3616C24.0512 17.509 22.7911 17.0114 21.829 16.1216C20.867 15.2318 20.2728 14.0143 20.1631 12.7084C20.0535 11.4026 20.4364 10.103 21.2366 9.0653C22.0368 8.02757 23.1963 7.32678 24.487 7.10079V7.02208C24.487 6.5582 24.6713 6.11331 24.9993 5.7853C25.3273 5.45728 25.7722 5.273 26.2361 5.273C26.7 5.273 27.1449 5.45728 27.4729 5.7853C27.8009 6.11331 27.9852 6.5582 27.9852 7.02208H30.6088C31.0727 7.02208 31.5176 7.20636 31.8456 7.53438C32.1736 7.86239 32.3579 8.30728 32.3579 8.77116C32.3579 9.23505 32.1736 9.67993 31.8456 10.0079C31.5176 10.336 31.0727 10.5202 30.6088 10.5202H25.3616C24.8977 10.5202 24.4528 10.7045 24.1248 11.0325C23.7968 11.3606 23.6125 11.8054 23.6125 12.2693C23.6125 12.7332 23.7968 13.1781 24.1248 13.5061C24.4528 13.8341 24.8977 14.0184 25.3616 14.0184H27.1107C28.421 14.026 29.6812 14.5236 30.6432 15.4134C31.6052 16.3032 32.1995 17.5207 32.3091 18.8265C32.4187 20.1323 32.0358 21.4319 31.2356 22.4697C30.4355 23.5074 29.276 24.2082 27.9852 24.4342V24.5129C27.9852 24.9768 27.8009 25.4217 27.4729 25.7497C27.1449 26.0777 26.7 26.262 26.2361 26.262H37.9462C39.979 23.9992 41.3127 21.196 41.7861 18.1913C42.2594 15.1866 41.8521 12.1091 40.6133 9.33099C39.3746 6.55289 37.3575 4.19317 34.806 2.53722C32.2545 0.881265 29.2779 0 26.2361 0C23.1944 0 20.2177 0.881265 17.6662 2.53722C15.1147 4.19317 13.0976 6.55289 11.8589 9.33099C10.6202 12.1091 10.2128 15.1866 10.6862 18.1913C11.1595 21.196 12.4932 23.9992 14.526 26.262H26.2361Z" fill="#525252"/>
</svg>
