<svg width="53" height="49" viewBox="0 0 53 49" fill="none" xmlns="http://www.w3.org/2000/svg">
<path d="M35.1819 14.6363C35.6743 14.3357 35.9847 13.801 35.9847 13.2257C35.9847 12.6504 35.6824 12.1174 35.1932 11.8184L16.1292 0.239534C15.6189 -0.069236 14.7169 -0.0806117 14.1969 0.211907C13.6801 0.5028 13.0057 1.05209 13.0057 1.6485V5.55037C13.0057 6.74645 12.3215 7.76214 11.1401 7.9539C4.93219 8.96309 0 14.2934 0 20.7207C0 22.64 0.47128 24.4552 1.22208 26.0917C1.33746 26.3436 1.61373 26.5045 1.89325 26.5045C2.17114 26.5028 2.43278 26.3371 2.54654 26.0852C4.04326 22.7586 6.90994 20.1828 10.4234 19.0647C11.1092 18.8453 11.678 18.9672 12.2582 19.3914C12.8383 19.8155 13.0057 20.4932 13.0057 21.2131V24.8046C13.0057 25.3994 13.6769 25.9503 14.1937 26.2428C14.7137 26.537 15.6091 26.524 16.1194 26.2136L35.1819 14.6363Z" fill="#525252"/>
<path d="M50.8641 22.9831C50.7536 22.7231 50.4774 22.5508 50.193 22.5508C49.9102 22.5492 49.6437 22.7182 49.5316 22.9782C47.8203 26.9305 44.8139 28.9326 41.6693 29.9353C40.9835 30.1547 40.3725 30.0344 39.7923 29.6103C39.2105 29.1845 39.0074 28.5084 39.0074 27.7901V24.197C39.0074 23.6006 38.3752 23.0513 37.8584 22.7604C37.3384 22.4647 36.4657 22.4777 35.9538 22.7897L16.9027 34.3669C16.4103 34.666 16.1016 35.2006 16.1016 35.7743C16.1016 36.3496 16.4071 36.8842 16.8979 37.1832L35.9636 48.7605C36.4722 49.0692 37.3352 49.0806 37.8552 48.7897C38.372 48.4972 39.0074 47.9479 39.0074 47.3515V43.4496C39.0074 42.2552 39.7306 41.2411 40.912 41.0461C47.1199 40.0369 52.0732 34.7082 52.0732 28.2793C52.0732 26.8005 51.6133 24.7496 50.8641 22.9831Z" fill="#525252"/>
</svg>
