<svg width="53" height="50" viewBox="0 0 53 50" fill="none" xmlns="http://www.w3.org/2000/svg">
<path d="M40.4724 4.9375C38.4956 5.11659 36.7632 6.15245 35.6497 7.6706L40.4724 10.5642V4.9375Z" fill="#525252"/>
<path d="M41.0598 36.7525C41.0598 36.8768 41.1033 36.9751 41.1904 37.0471C41.2772 37.1193 41.4078 37.1826 41.582 37.2374V36.3198C41.234 36.3497 41.0598 36.494 41.0598 36.7525Z" fill="#525252"/>
<path d="M42.3506 38.8226C42.246 38.7506 42.1068 38.6847 41.9329 38.625V39.5201C42.3157 39.5052 42.5073 39.3735 42.5073 39.1247C42.5073 38.9954 42.4548 38.8946 42.3506 38.8226Z" fill="#525252"/>
<path d="M52.5208 32.2403C52.6531 31.9485 52.7224 31.6291 52.7224 31.2968V26.9585H47.0417C49.3492 28.0761 51.2833 29.9068 52.5208 32.2403Z" fill="#525252"/>
<path d="M41.6976 33.0835C38.9956 33.0835 36.7976 35.2816 36.7976 37.9835C36.7976 40.6854 38.9956 42.8835 41.6976 42.8835C44.3993 42.8835 46.5976 40.6854 46.5976 37.9835C46.5976 35.2816 44.3993 33.0835 41.6976 33.0835ZM43.6706 39.729C43.571 39.9279 43.4381 40.0907 43.2715 40.2175C43.1049 40.3443 42.9135 40.4401 42.6972 40.5048C42.4806 40.5692 42.2531 40.6066 42.0146 40.6166V41.4819H41.4998V40.609C41.1566 40.5793 40.8174 40.5097 40.4817 40.4003C40.146 40.2909 39.8438 40.1467 39.5754 39.9676L40.1123 38.901C40.1322 38.9259 40.1858 38.9669 40.2729 39.024C40.3598 39.0813 40.4705 39.141 40.6048 39.2031C40.7393 39.2653 40.8907 39.325 41.0599 39.3821C41.2288 39.4394 41.403 39.4804 41.5822 39.5052V38.5131L41.224 38.4086C40.9802 38.3341 40.7689 38.2532 40.59 38.1661C40.411 38.0792 40.2629 37.9785 40.1461 37.8641C40.0292 37.7496 39.9421 37.6178 39.8851 37.4686C39.8279 37.3194 39.7992 37.1454 39.7992 36.9464C39.7992 36.6879 39.8439 36.4579 39.9337 36.2564C40.023 36.055 40.1436 35.8823 40.2955 35.7379C40.4469 35.5938 40.6259 35.4806 40.8324 35.3986C41.0387 35.3165 41.2614 35.2631 41.4999 35.2381V34.4848H42.0148V35.2381C42.3378 35.268 42.6413 35.3402 42.9247 35.4545C43.2082 35.569 43.4544 35.6858 43.6632 35.8051L43.1261 36.8195C43.1113 36.7997 43.0674 36.7673 42.9955 36.7225C42.9235 36.6778 42.8316 36.6293 42.7196 36.5771C42.6077 36.5248 42.4832 36.4752 42.3466 36.4277C42.2098 36.3806 42.072 36.347 41.9327 36.3272V37.3416L42.1714 37.4013C42.4248 37.4708 42.6536 37.5467 42.8577 37.6286C43.0615 37.7107 43.2342 37.8127 43.3759 37.9345C43.5177 38.0564 43.6271 38.2042 43.7042 38.3783C43.7815 38.5524 43.8199 38.7613 43.8199 39.0049C43.8199 39.2889 43.7698 39.5302 43.6706 39.729Z" fill="#525252"/>
<path d="M44.7755 27.3963C44.7296 27.383 44.6834 27.3699 44.6372 27.3571C44.58 27.3413 44.5231 27.3255 44.4657 27.3106C44.3661 27.2848 44.2664 27.2603 44.1662 27.2373C44.1273 27.2284 44.088 27.2202 44.0488 27.2117C43.9659 27.1937 43.8831 27.1765 43.8 27.1604C43.7648 27.1535 43.7299 27.1467 43.6947 27.1402C43.5801 27.1192 43.4653 27.0997 43.35 27.0822C43.3292 27.0792 43.3081 27.0765 43.287 27.0735C43.1851 27.0587 43.0825 27.0455 42.9798 27.0335C42.9509 27.0302 42.9219 27.0266 42.893 27.0235C42.7722 27.0104 42.651 26.9988 42.5293 26.9897C42.5177 26.9889 42.5061 26.9884 42.4944 26.9875C42.3836 26.9796 42.2723 26.9736 42.1608 26.9689C42.1294 26.9676 42.0978 26.9663 42.0665 26.9654C41.9437 26.9613 41.8207 26.9585 41.6975 26.9585C41.5654 26.9585 41.4341 26.9616 41.3029 26.9662C41.2749 26.9673 41.2469 26.9683 41.2189 26.9694C41.0876 26.975 40.9564 26.9824 40.826 26.9927C40.82 26.9932 40.814 26.9939 40.8081 26.9944C40.6773 27.0049 40.5468 27.0179 40.4172 27.0331C40.4019 27.0349 40.3866 27.0365 40.3713 27.0384C40.2352 27.0548 40.0995 27.0735 39.9646 27.095C39.9608 27.0956 39.9569 27.0963 39.9531 27.0969C39.814 27.1192 39.6757 27.1438 39.5382 27.1713C39.5377 27.1713 39.5372 27.1714 39.5367 27.1715C39.3994 27.199 39.263 27.2291 39.1273 27.2614C39.1198 27.2633 39.1127 27.265 39.1053 27.2668C38.8421 27.3305 38.5821 27.4039 38.3258 27.4862C38.306 27.4926 38.2864 27.499 38.2668 27.5055C38.1452 27.5453 38.0243 27.5867 37.9045 27.6305C37.8904 27.6358 37.8765 27.6414 37.8624 27.6467C37.765 27.6828 37.6683 27.7208 37.5722 27.7596C37.5298 27.7769 37.4875 27.7939 37.4451 27.8117C37.3585 27.848 37.2722 27.8856 37.1865 27.924C37.1162 27.9558 37.0463 27.9884 36.977 28.0214C36.9446 28.0367 36.9124 28.0522 36.8803 28.0679C34.3334 29.3103 32.333 31.5052 31.3465 34.1862C31.3439 34.1933 31.3412 34.2002 31.3386 34.2073C31.2884 34.3448 31.2415 34.4837 31.1965 34.6234C31.1858 34.6571 31.1745 34.6907 31.1642 34.7245C31.1424 34.7948 31.1213 34.8655 31.101 34.9364C31.0824 35.001 31.0646 35.0659 31.0473 35.1308C31.0242 35.2171 31.0021 35.3037 30.9811 35.3908C30.9638 35.4615 30.9474 35.5324 30.9318 35.6034C30.9203 35.6555 30.9087 35.7073 30.8979 35.7595C30.8751 35.8699 30.8545 35.9809 30.8352 36.092C30.8273 36.1383 30.8196 36.1848 30.8121 36.2313C30.7933 36.35 30.7753 36.4687 30.7602 36.588C30.7566 36.6166 30.7537 36.6457 30.7504 36.6743C30.7373 36.7847 30.7258 36.8956 30.7162 37.0064C30.7136 37.0366 30.7105 37.0666 30.7081 37.0967C30.6978 37.2261 30.69 37.3557 30.6842 37.4857C30.6828 37.5149 30.6818 37.5443 30.6809 37.5737C30.6759 37.71 30.6726 37.8464 30.6726 37.9831C30.6726 38.1487 30.6769 38.3138 30.6841 38.4783C30.6849 38.493 30.6853 38.5079 30.6861 38.5226C30.6936 38.6784 30.705 38.8338 30.7189 38.9886C30.7211 39.0115 30.723 39.0344 30.7252 39.0573C30.7395 39.2056 30.7573 39.353 30.7776 39.5C30.7816 39.5297 30.7857 39.5593 30.7901 39.589C30.8107 39.7291 30.8338 39.8684 30.8597 40.0073C30.8666 40.0447 30.8738 40.0818 30.8812 40.119C30.9068 40.2494 30.9346 40.3791 30.965 40.5081C30.976 40.5555 30.9878 40.6025 30.9997 40.6497C31.0288 40.7678 31.0597 40.8853 31.093 41.0021C31.1103 41.0622 31.1284 41.1219 31.1467 41.1816C31.1697 41.2576 31.1938 41.3331 31.2185 41.4086C31.2522 41.5116 31.2872 41.614 31.3237 41.7157C31.3388 41.7578 31.3546 41.7997 31.3701 41.8415C31.4218 41.9796 31.4758 42.1164 31.533 42.2519C31.5381 42.264 31.5431 42.276 31.5484 42.2881C33.2281 46.2346 37.1449 49.0085 41.6975 49.0085C47.7766 49.0085 52.7225 44.0627 52.7225 37.9835C52.7225 32.9723 49.3615 28.7318 44.7755 27.3963ZM41.6975 44.1085C38.3202 44.1085 35.5725 41.3608 35.5725 37.9835C35.5725 34.6062 38.3202 31.8585 41.6975 31.8585C45.0748 31.8585 47.8225 34.6062 47.8225 37.9835C47.8225 41.3608 45.0749 44.1085 41.6975 44.1085Z" fill="#525252"/>
<path d="M41.0845 12.2583C41.0482 12.2583 41.0115 12.2537 40.9749 12.247C40.9663 12.2454 40.9576 12.2438 40.9493 12.2418C40.9162 12.2344 40.8835 12.2248 40.8517 12.2116C40.8497 12.2109 40.8476 12.2104 40.8457 12.2095C40.8201 12.1985 40.7947 12.1856 40.7701 12.1709L35.0171 8.71924C34.5884 9.60479 34.3477 10.5977 34.3477 11.6458C34.3477 15.3608 37.37 18.3833 41.0852 18.3833C44.5937 18.3833 47.483 15.6872 47.7935 12.2583H41.0864C41.0859 12.2581 41.0852 12.2583 41.0845 12.2583Z" fill="#525252"/>
<path d="M29.9834 41.5696C29.9513 41.4645 29.9204 41.3589 29.891 41.2528C29.869 41.1731 29.8473 41.0931 29.8267 41.0127C29.8106 40.9494 29.7953 40.8861 29.7803 40.8224C29.7577 40.7284 29.7368 40.6341 29.7164 40.5393C29.7044 40.4823 29.6926 40.4252 29.6813 40.368C29.6595 40.2583 29.6394 40.1479 29.6205 40.037C29.6133 39.9946 29.6062 39.9522 29.5995 39.9097C29.5781 39.775 29.5588 39.6397 29.5418 39.5038C29.538 39.4734 29.5348 39.4429 29.5312 39.4125C29.5164 39.2861 29.5037 39.1593 29.4928 39.0318C29.4908 39.0074 29.4882 38.983 29.4863 38.9585C29.475 38.8152 29.4664 38.6711 29.4602 38.5266C29.4587 38.4942 29.4576 38.4619 29.4564 38.4294C29.4511 38.2813 29.4475 38.1328 29.4475 37.9833C29.4475 37.8608 29.45 37.7389 29.4536 37.6173C29.4545 37.5786 29.4564 37.5399 29.4578 37.5013C29.4611 37.4169 29.4653 37.3325 29.4703 37.2484C29.4728 37.2051 29.4754 37.1616 29.4784 37.1182C29.4844 37.0334 29.4913 36.9489 29.4992 36.8646C29.5026 36.8264 29.5055 36.7883 29.5093 36.7502C29.5208 36.6364 29.5337 36.5231 29.5482 36.4104C29.5543 36.3625 29.5616 36.315 29.5683 36.2672C29.5779 36.1982 29.5879 36.1291 29.5987 36.0604C29.6078 36.0028 29.6176 35.9455 29.6274 35.8882C29.6374 35.8304 29.648 35.7729 29.6587 35.7155C29.6703 35.6538 29.6818 35.5922 29.6941 35.5309C29.7032 35.4863 29.7133 35.4419 29.7228 35.3976C29.7515 35.2645 29.7823 35.132 29.8154 34.9999C29.8235 34.9683 29.8312 34.9365 29.8393 34.9051C29.8476 34.8729 29.8549 34.8407 29.8634 34.8086H19.8905L16.7332 45.3333H31.8971C31.0619 44.2225 30.4299 42.9857 30.0162 41.6746C30.0052 41.6397 29.9941 41.6048 29.9834 41.5696Z" fill="#525252"/>
<path d="M50.4357 0.00830078H2.35922C1.09845 0.00830078 0.0725098 1.03412 0.0725098 2.29501V25.7333H7.68503C8.02325 25.7333 8.29753 26.0075 8.29753 26.3458C8.29753 26.6841 8.02325 26.9583 7.68503 26.9583H0.0725098V31.2966C0.0725098 32.5575 1.09832 33.5833 2.35922 33.5833H19.4351H30.2621C31.3649 30.7159 33.4783 28.4339 36.108 27.0847C36.1208 27.078 36.1341 27.0715 36.1472 27.0648C36.2172 27.029 36.2874 26.9927 36.3582 26.9583H12.91C12.5718 26.9583 12.2975 26.6841 12.2975 26.3458C12.2975 26.0075 12.5718 25.7333 12.91 25.7333H52.7225V2.29501C52.7225 1.03412 51.6966 0.00830078 50.4357 0.00830078ZM25.2553 28.7958C25.9646 28.7958 26.5396 29.3708 26.5396 30.0801C26.5396 30.7894 25.9646 31.3643 25.2553 31.3643C24.546 31.3643 23.971 30.7894 23.971 30.0801C23.971 29.3708 24.546 28.7958 25.2553 28.7958ZM10.46 9.1958H3.11002V6.7458H10.46V9.1958ZM10.46 5.5208H3.11002V3.0708H10.46V5.5208ZM14.135 18.9958H11.685V15.3208H14.135V18.9958ZM17.81 18.9958H15.36V11.6458H17.81V18.9958ZM21.485 18.9958H19.035V14.0958H21.485V18.9958ZM25.16 18.9958H22.71V9.1958H25.16V18.9958ZM28.835 18.9958H26.385V11.6458H28.835V18.9958ZM41.085 19.6083C36.6944 19.6083 33.1225 16.0363 33.1225 11.6458C33.1225 7.25528 36.6944 3.6833 41.085 3.6833C45.4754 3.6833 49.0475 7.25528 49.0475 11.6458C49.0475 16.0363 45.4754 19.6083 41.085 19.6083Z" fill="#525252"/>
<path d="M41.6978 4.9375V11.0335H47.7936C47.5012 7.80645 44.9249 5.22991 41.6978 4.9375Z" fill="#525252"/>
</svg>
