<svg width="9" height="6" viewBox="0 0 9 6" fill="none" xmlns="http://www.w3.org/2000/svg">
<path d="M7.9715 1.1072C7.91072 1.04678 7.8285 1.01287 7.7428 1.01287C7.6571 1.01287 7.57488 1.04678 7.5141 1.1072L4.52313 4.08195L1.53541 1.078C1.47335 1.02486 1.39352 0.997088 1.31188 1.00024C1.23024 1.0034 1.15279 1.03724 1.09501 1.09501C1.03724 1.15279 1.0034 1.23024 1.00024 1.31188C0.997088 1.39352 1.02486 1.47335 1.078 1.53541L4.52313 5L7.9715 1.5646C8.03192 1.50382 8.06584 1.4216 8.06584 1.3359C8.06584 1.2502 8.03192 1.16798 7.9715 1.1072Z" fill="white" stroke="white"/>
</svg>
