<svg width="12" height="15" viewBox="0 0 12 15" fill="none" xmlns="http://www.w3.org/2000/svg">
<path d="M4.53324 1.0004C4.58067 1.00261 4.6272 1.01415 4.67016 1.03434C4.71313 1.05454 4.7517 1.083 4.78367 1.11811C4.81564 1.15321 4.84037 1.19427 4.85647 1.23893C4.87257 1.2836 4.87971 1.331 4.87749 1.37843C4.87526 1.42585 4.86372 1.47238 4.84352 1.51534C4.82331 1.55831 4.79484 1.59687 4.75973 1.62883C4.72462 1.66079 4.68356 1.68552 4.63889 1.70161C4.59422 1.7177 4.54682 1.72483 4.49939 1.7226H1.6106C1.4043 1.7226 1.2495 1.8774 1.2495 2.08369V12.9167C1.2495 13.123 1.4043 13.2778 1.6106 13.2778H4.49939C4.54724 13.2771 4.59475 13.2859 4.63915 13.3038C4.68355 13.3216 4.72397 13.3481 4.75805 13.3817C4.79212 13.4153 4.81918 13.4553 4.83765 13.4995C4.85612 13.5436 4.86563 13.591 4.86563 13.6389C4.86563 13.6867 4.85612 13.7341 4.83765 13.7782C4.81918 13.8224 4.79212 13.8624 4.75805 13.896C4.72397 13.9296 4.68355 13.9561 4.63915 13.974C4.59475 13.9918 4.54724 14.0006 4.49939 14H1.6106C1.0167 14 0.5273 13.5106 0.5273 12.9167V2.08369C0.5273 1.48979 1.0167 1.0004 1.6106 1.0004H4.49939C4.51067 0.999868 4.52196 0.999868 4.53324 1.0004ZM8.14423 4.24465C8.2362 4.25416 8.32102 4.29859 8.38121 4.36877L10.9089 7.25757C10.9676 7.32366 11 7.40897 11 7.49736C11 7.58575 10.9676 7.67106 10.9089 7.73715L8.38121 10.6259C8.31749 10.6973 8.22808 10.7405 8.13257 10.7462C8.03705 10.7518 7.9432 10.7193 7.87156 10.6559C7.79993 10.5924 7.75634 10.5032 7.75034 10.4077C7.74434 10.3122 7.77642 10.2183 7.83956 10.1464L9.84253 7.86128H3.41609C3.36824 7.86196 3.32074 7.85312 3.27633 7.83527C3.23193 7.81743 3.19151 7.79094 3.15744 7.75734C3.12336 7.72374 3.0963 7.68371 3.07783 7.63956C3.05936 7.59541 3.04985 7.54804 3.04985 7.50018C3.04985 7.45233 3.05936 7.40495 3.07783 7.3608C3.0963 7.31665 3.12336 7.27662 3.15744 7.24302C3.19151 7.20942 3.23193 7.18293 3.27633 7.16509C3.32074 7.14724 3.36824 7.1384 3.41609 7.13908H9.84253L7.83956 4.84836C7.78975 4.7943 7.75763 4.72633 7.74748 4.65353C7.73733 4.58074 7.74963 4.50657 7.78275 4.44095C7.81587 4.37533 7.86822 4.32138 7.93281 4.2863C7.9974 4.25122 8.07116 4.23669 8.14423 4.24465Z" fill="#F41112" stroke="#F41112"/>
</svg>
