<svg width="42" height="13" viewBox="0 0 42 13" fill="none" xmlns="http://www.w3.org/2000/svg">
<path d="M22.5704 10L21.0604 7.85C20.8737 7.86333 20.727 7.87 20.6204 7.87H18.8904V10H17.8904V3H20.6204C21.527 3 22.2404 3.21667 22.7604 3.65C23.2804 4.08333 23.5404 4.68 23.5404 5.44C23.5404 5.98 23.407 6.44 23.1404 6.82C22.8737 7.2 22.4937 7.47667 22.0004 7.65L23.6604 10H22.5704ZM20.5904 7.02C21.2237 7.02 21.707 6.88333 22.0404 6.61C22.3737 6.33667 22.5404 5.94667 22.5404 5.44C22.5404 4.93333 22.3737 4.54667 22.0404 4.28C21.707 4.00667 21.2237 3.87 20.5904 3.87H18.8904V7.02H20.5904ZM28.056 10.08C27.1226 10.08 26.396 9.81333 25.876 9.28C25.356 8.74667 25.096 7.98 25.096 6.98V3H26.096V6.94C26.096 8.44 26.7526 9.19 28.066 9.19C28.706 9.19 29.196 9.00667 29.536 8.64C29.876 8.26667 30.046 7.7 30.046 6.94V3H31.016V6.98C31.016 7.98667 30.756 8.75667 30.236 9.29C29.716 9.81667 28.9893 10.08 28.056 10.08Z" fill="white"/>
<path d="M40.9297 5.29173C40.8845 5.24674 40.8233 5.22149 40.7595 5.22149C40.6956 5.22149 40.6344 5.24674 40.5892 5.29173L38.3622 7.50662L36.1377 5.26999C36.0915 5.23042 36.032 5.20975 35.9712 5.21209C35.9104 5.21444 35.8528 5.23964 35.8098 5.28266C35.7667 5.32567 35.7415 5.38334 35.7392 5.44413C35.7368 5.50492 35.7575 5.56435 35.7971 5.61056L38.3622 8.19017L40.9297 5.6323C40.9747 5.58704 41 5.52582 41 5.46201C41 5.3982 40.9747 5.33699 40.9297 5.29173Z" fill="white" stroke="white"/>
<path d="M5.21194 1.48901C4.18112 1.48901 3.17344 1.79469 2.31634 2.36738C1.45924 2.94008 0.791217 3.75407 0.396738 4.70643C0.00225825 5.65879 -0.100956 6.70674 0.100148 7.71775C0.301252 8.72877 0.797642 9.65745 1.52654 10.3864C2.25545 11.1153 3.18413 11.6116 4.19515 11.8128C5.20616 12.0139 6.25411 11.9106 7.20647 11.5162C8.15883 11.1217 8.97282 10.4537 9.54552 9.59655C10.1182 8.73946 10.4239 7.73178 10.4239 6.70096C10.4239 5.31866 9.87477 3.99298 8.89734 3.01556C7.91991 2.03813 6.59424 1.48901 5.21194 1.48901ZM9.27167 4.83955H7.49775C7.23831 3.92244 6.78793 3.07052 6.17615 2.33968C6.8497 2.49006 7.47945 2.79387 8.01637 3.22747C8.55328 3.66107 8.98287 4.21275 9.27167 4.83955ZM5.19147 10.9934C4.50885 10.3133 3.9989 9.47975 3.7042 8.56236H6.71968C6.42445 9.47993 5.91385 10.3135 5.23056 10.9934C5.22486 10.9975 5.21803 10.9997 5.21101 10.9997C5.204 10.9997 5.19716 10.9975 5.19147 10.9934ZM3.5162 7.8178C3.37969 7.07949 3.37969 6.32242 3.5162 5.58411H6.90769C7.0442 6.32242 7.0442 7.07949 6.90769 7.8178H3.5162ZM0.744565 6.70096C0.743975 6.32417 0.791515 5.94885 0.886033 5.58411H2.76047C2.63893 6.32371 2.63893 7.0782 2.76047 7.8178H0.886033C0.791515 7.45306 0.743975 7.07774 0.744565 6.70096ZM5.21194 2.4011C5.21852 2.39851 5.22584 2.39851 5.23242 2.4011C5.91604 3.08329 6.42606 3.91949 6.71968 4.83955H3.7042C3.99944 3.92198 4.51004 3.08841 5.19333 2.40855C5.1984 2.40385 5.20503 2.4012 5.21194 2.4011ZM7.66342 5.58411H9.53786C9.72651 6.31672 9.72651 7.08519 9.53786 7.8178H7.66342C7.78496 7.0782 7.78496 6.32371 7.66342 5.58411ZM4.24774 2.33968C3.63666 3.07099 3.18636 3.92275 2.92614 4.83955H1.15221C1.44102 4.21275 1.87061 3.66107 2.40752 3.22747C2.94443 2.79387 3.57418 2.49006 4.24774 2.33968ZM1.15221 8.56236H2.92614C3.18558 9.47948 3.63596 10.3314 4.24774 11.0622C3.57418 10.9119 2.94443 10.608 2.40752 10.1744C1.87061 9.74084 1.44102 9.18916 1.15221 8.56236ZM6.17801 11.0622C6.78843 10.3308 7.23808 9.47901 7.49775 8.56236H9.27167C8.98287 9.18916 8.55328 9.74084 8.01637 10.1744C7.47945 10.608 6.8497 10.9119 6.17615 11.0622H6.17801Z" fill="white"/>
</svg>
