<svg width="14" height="14" viewBox="0 0 14 14" fill="none" xmlns="http://www.w3.org/2000/svg">
<path d="M7 0C5.61553 0 4.26215 0.410543 3.11101 1.17971C1.95987 1.94888 1.06266 3.04213 0.532846 4.32122C0.00303298 5.6003 -0.13559 7.00776 0.134506 8.36563C0.404603 9.7235 1.07129 10.9708 2.05026 11.9497C3.02922 12.9287 4.2765 13.5954 5.63437 13.8655C6.99224 14.1356 8.3997 13.997 9.67879 13.4672C10.9579 12.9373 12.0511 12.0401 12.8203 10.889C13.5895 9.73785 14 8.38447 14 7C14 5.14348 13.2625 3.36301 11.9497 2.05025C10.637 0.737498 8.85652 0 7 0ZM12.4525 4.5H10.07C9.72155 3.26825 9.11666 2.12408 8.295 1.1425C9.19963 1.34447 10.0454 1.75252 10.7665 2.33487C11.4877 2.91723 12.0646 3.65817 12.4525 4.5ZM6.9725 12.765C6.0557 11.8516 5.3708 10.7321 4.975 9.5H9.025C8.62848 10.7324 7.94271 11.8519 7.025 12.765C7.01735 12.7705 7.00817 12.7734 6.99875 12.7734C6.98933 12.7734 6.98015 12.7705 6.9725 12.765ZM4.7225 8.5C4.53916 7.5084 4.53916 6.49159 4.7225 5.5H9.2775C9.46085 6.49159 9.46085 7.5084 9.2775 8.5H4.7225ZM1 7C0.99921 6.49395 1.06306 5.98987 1.19 5.5H3.7075C3.54426 6.49334 3.54426 7.50666 3.7075 8.5H1.19C1.06306 8.01013 0.99921 7.50605 1 7ZM7 1.225C7.00884 1.22152 7.01867 1.22152 7.0275 1.225C7.94565 2.14122 8.63065 3.2643 9.025 4.5H4.975C5.37152 3.26764 6.0573 2.14811 6.975 1.235C6.98181 1.22869 6.99072 1.22512 7 1.225ZM10.2925 5.5H12.81C13.0634 6.48395 13.0634 7.51605 12.81 8.5H10.2925C10.4557 7.50666 10.4557 6.49334 10.2925 5.5ZM5.705 1.1425C4.88428 2.12471 4.27951 3.26867 3.93 4.5H1.5475C1.93539 3.65817 2.51235 2.91723 3.23346 2.33487C3.95458 1.75252 4.80038 1.34447 5.705 1.1425ZM1.5475 9.5H3.93C4.27846 10.7317 4.88334 11.8759 5.705 12.8575C4.80038 12.6555 3.95458 12.2475 3.23346 11.6651C2.51235 11.0828 1.93539 10.3418 1.5475 9.5ZM8.2975 12.8575C9.11733 11.8751 9.72124 10.7311 10.07 9.5H12.4525C12.0646 10.3418 11.4877 11.0828 10.7665 11.6651C10.0454 12.2475 9.19963 12.6555 8.295 12.8575H8.2975Z" fill="white"/>
</svg>
