<svg width="22" height="15" viewBox="0 0 22 15" fill="none" xmlns="http://www.w3.org/2000/svg">
<path d="M14.4644 7.61194L21.8197 12.2619V2.76562L14.4644 7.61194Z" fill="#F41112"/>
<path d="M0 2.76562V12.2619L7.35538 7.61194L0 2.76562Z" fill="#F41112"/>
<path d="M20.453 0H1.36226C0.681817 0 0.141822 0.507268 0.0395508 1.16044L10.9076 8.32082L21.7757 1.16044C21.6734 0.507268 21.1334 0 20.453 0Z" fill="#F41112"/>
<path d="M13.2138 8.43544L11.2843 9.70634C11.1697 9.78134 11.0402 9.81816 10.9093 9.81816C10.7784 9.81816 10.6488 9.78134 10.5343 9.70634L8.60476 8.43408L0.0439453 13.849C0.148944 14.4967 0.686211 14.9999 1.36393 14.9999H20.4546C21.1324 14.9999 21.6696 14.4967 21.7746 13.849L13.2138 8.43544Z" fill="#F41112"/>
</svg>
