<svg width="21" height="14" viewBox="0 0 21 14" fill="none" xmlns="http://www.w3.org/2000/svg">
<path d="M13.4995 7.10426L20.3645 11.4442V2.58105L13.4995 7.10426Z" fill="#F41112"/>
<path d="M0 2.58105V11.4442L6.865 7.10426L0 2.58105Z" fill="#F41112"/>
<path d="M19.0901 0H1.27213C0.637044 0 0.133051 0.473448 0.0375977 1.08308L10.1811 7.76608L20.3246 1.08308C20.2291 0.473448 19.7251 0 19.0901 0Z" fill="#F41112"/>
<path d="M12.3328 7.87334L10.532 9.05951C10.4251 9.12951 10.3041 9.16387 10.182 9.16387C10.0598 9.16387 9.93888 9.12951 9.83197 9.05951L8.03109 7.87207L0.0410156 12.926C0.139014 13.5305 0.640462 14.0002 1.273 14.0002H19.0909C19.7235 14.0002 20.2249 13.5305 20.3229 12.926L12.3328 7.87334Z" fill="#F41112"/>
</svg>
