<svg width="14" height="18" viewBox="0 0 14 18" fill="none" xmlns="http://www.w3.org/2000/svg">
<path d="M11.2955 7.33637H11.1104V4.57966C11.1104 2.05432 9.05592 0 6.53059 0C4.00525 0 1.95074 2.05432 1.95074 4.57966V7.33637H1.76568C0.790981 7.33637 0 8.12677 0 9.10204V16.2343C0 17.2096 0.790789 18 1.76568 18H11.2955C12.2702 18 13.0612 17.2098 13.0612 16.2343V9.10204C13.061 8.12677 12.2702 7.33637 11.2955 7.33637ZM3.68029 4.57966C3.68029 3.00807 4.95881 1.72955 6.53059 1.72955C8.10237 1.72955 9.38089 3.00807 9.38089 4.57966V7.33637H3.68029V4.57966ZM7.26738 13.4713V15.3255C7.26738 15.7324 6.93742 16.0623 6.53059 16.0623C6.12376 16.0623 5.7938 15.7324 5.7938 15.3255V13.4713C5.20633 13.1943 4.79912 12.5986 4.79912 11.906C4.79912 10.9496 5.57415 10.1744 6.53059 10.1744C7.48703 10.1744 8.26206 10.9496 8.26206 11.906C8.26206 12.5986 7.85485 13.1942 7.26738 13.4713Z" fill="#F41112"/>
</svg>
