<svg width="19" height="14" viewBox="0 0 19 14" fill="none" xmlns="http://www.w3.org/2000/svg">
<path d="M4.53109 4.4974L3.81806 4.68827L4.00893 5.4013L3.4873 5.92296L4.00893 6.44459L3.81806 7.15762L4.53109 7.34848L4.72196 8.06151L5.43499 7.87065L5.95665 8.39231L6.47828 7.87068L7.19131 8.06155L7.38217 7.34852L8.0952 7.15765L7.90434 6.44462L8.426 5.92296L7.90437 5.40133L8.09524 4.6883L7.38221 4.49744L7.19134 3.78441L6.47831 3.97527L5.95665 3.45361L5.43503 3.97524L4.722 3.78437L4.53109 4.4974ZM5.95665 5.16154L6.71807 5.92296L5.95665 6.68438L5.19523 5.92296L5.95665 5.16154Z" fill="#F41112"/>
<path d="M6.49512 2.46935L6.8001 2.77433L7.95273 2.46569L8.26141 3.61832L9.41404 3.927L9.1054 5.07963L9.41038 5.38461H18.3772V0H6.49512V2.46935Z" fill="#F41112"/>
<path d="M2.81023 5.07963L2.50158 3.927L3.65421 3.61832L3.96289 2.46569L5.11552 2.77433L5.42051 2.46935V0H0V5.38461H2.50524L2.81023 5.07963Z" fill="#F41112"/>
<path d="M9.1054 6.76641L9.41408 7.91904L8.26145 8.22772L8.12604 8.73337C8.1866 9.27388 8.63694 9.69219 9.18742 9.69219H9.72588V10.7691H9.18742C8.1893 10.7691 7.34118 10.0857 7.10146 9.1524L6.8001 9.07167L6.49512 9.37669V13.9999H18.3772V6.46143H9.41038L9.1054 6.76641Z" fill="#F41112"/>
<path d="M5.42051 9.37669L5.11552 9.07171L4.80526 9.15477C4.56418 10.0807 3.72866 10.7691 2.7282 10.7691H2.18974V9.69219H2.7282C3.28637 9.69219 3.73164 9.26002 3.78481 8.7155L3.65421 8.22772L2.50158 7.91904L2.81026 6.76641L2.50524 6.46143H0V13.9999H5.42051V9.37669Z" fill="#F41112"/>
</svg>
