<svg width="19" height="10" viewBox="0 0 19 10" fill="none" xmlns="http://www.w3.org/2000/svg">
<path d="M18.8214 4.62944C18.6521 4.44063 14.5808 0 9.4815 0C4.38217 0 0.310907 4.44063 0.141611 4.62944C-0.0472037 4.84048 -0.0472037 5.15952 0.141611 5.37056C0.310907 5.55937 4.38224 10 9.4815 10C14.5808 10 18.6521 5.55937 18.8214 5.37056C19.0102 5.15952 19.0102 4.84048 18.8214 4.62944ZM9.4815 8.88889C7.33739 8.88889 5.59261 7.14411 5.59261 5C5.59261 2.85589 7.33739 1.11111 9.4815 1.11111C11.6256 1.11111 13.3704 2.85589 13.3704 5C13.3704 7.14411 11.6256 8.88889 9.4815 8.88889Z" fill="#797979"/>
<path d="M10.0365 3.88883C10.0365 3.32995 10.3139 2.83828 10.736 2.53587C10.3572 2.34198 9.93479 2.22217 9.4809 2.22217C7.94931 2.22217 6.70312 3.46835 6.70312 4.99995C6.70312 6.53154 7.94931 7.77772 9.4809 7.77772C10.8522 7.77772 11.9871 6.77646 12.2113 5.46817C11.0926 5.82835 10.0365 4.98224 10.0365 3.88883Z" fill="#797979"/>
</svg>
