<svg width="17" height="15" viewBox="0 0 17 15" fill="none" xmlns="http://www.w3.org/2000/svg">
<path d="M16.5645 2.13715C16.4878 2.07772 16.3875 2.05791 16.2919 2.08306C13.8126 2.7466 12.0034 3.06893 10.7612 3.06893C8.96811 3.06893 8.80302 2.41231 8.61245 1.65224C8.42754 0.916057 8.19766 0 6.46334 0C5.20923 0 3.16548 0.477997 0.215099 1.46135C0.0867943 1.50412 0 1.62456 0 1.75979V13.0616C0 13.1625 0.0484288 13.2575 0.13082 13.3169C0.212583 13.3761 0.318246 13.3921 0.41416 13.36C3.29913 12.3984 5.27778 11.9311 6.46334 11.9311C7.70614 11.9311 7.82344 12.3987 8.00143 13.1069C8.21307 13.9503 8.47659 15 10.7606 15C10.7603 15 10.7609 15 10.7606 15C12.0587 15 13.9217 14.6704 16.4544 13.9927C16.5922 13.956 16.6875 13.8314 16.6875 13.689V2.38684C16.6878 2.28904 16.6422 2.1969 16.5645 2.13715Z" fill="#F41112"/>
</svg>
