<svg width="15" height="15" viewBox="0 0 15 15" fill="none" xmlns="http://www.w3.org/2000/svg">
<path d="M14.311 2.77912C13.8296 1.935 13.1334 1.23328 12.2931 0.745187C11.4527 0.257094 10.4983 0 9.52649 0C8.55472 0 7.60024 0.257094 6.75993 0.745187C5.91963 1.23328 5.22341 1.935 4.74194 2.77912V2.80916C4.45371 3.2944 4.24256 3.82144 4.11602 4.37146C4.0428 4.7341 4.00589 5.10313 4.00586 5.47309C4.00628 6.41741 4.25125 7.34553 4.71691 8.16706C5.46825 9.36614 6.65226 10.2301 8.02342 10.5797C9.39458 10.9294 10.8477 10.7379 12.0815 10.045C13.3153 9.35212 14.2351 8.21098 14.6502 6.8582C15.0653 5.50542 14.9439 4.04477 14.311 2.77912ZM13.5499 7.47604H12.3181C12.4242 6.98133 12.4911 6.47904 12.5184 5.97382H14.0206C13.9531 6.4983 13.7937 7.00679 13.5499 7.47604ZM5.09747 4.57176C5.17561 4.18949 5.30355 3.81912 5.47803 3.47014H6.70984C6.60378 3.96484 6.53681 4.46713 6.50955 4.97235H5.00733C5.0524 4.83715 5.07243 4.70195 5.09747 4.57176ZM10.0147 2.46866V1.13169C10.4573 1.47546 10.7911 1.93971 10.9761 2.46866H10.0147ZM11.2966 3.47014C11.4146 3.96331 11.4884 4.46605 11.5169 4.97235H10.0147V3.47014H11.2966ZM9.01324 1.13169V2.46866H8.05182C8.23684 1.93971 8.57069 1.47546 9.01324 1.13169ZM9.01324 3.47014V4.97235H7.51102C7.53628 4.46635 7.60667 3.96362 7.72133 3.47014H9.01324ZM5.03738 5.97382H6.53959C6.5619 6.47864 6.62385 6.98093 6.72486 7.47604H5.48304C5.24713 7.00547 5.09625 6.49691 5.03738 5.97382ZM7.54107 5.97382H9.04328V7.47604H7.73135C7.61331 6.98286 7.53957 6.48012 7.51102 5.97382H7.54107ZM9.04328 8.47751V9.81448C8.58964 9.47489 8.24505 9.01022 8.05182 8.47751H9.04328ZM10.0448 9.81448V8.47751H11.0062C10.8129 9.01022 10.4684 9.47489 10.0147 9.81448H10.0448ZM10.0147 7.47604V5.97382H11.5169C11.4917 6.47982 11.4213 6.98256 11.3066 7.47604H10.0147ZM12.5184 4.97235C12.4961 4.46753 12.4341 3.96525 12.3331 3.47014H13.5599C13.7958 3.9407 13.9467 4.44926 14.0056 4.97235H12.5184ZM12.8789 2.46866H12.0427C11.9267 2.12207 11.7792 1.78684 11.602 1.46719C12.0794 1.72251 12.5069 2.06176 12.8639 2.46866H12.8789ZM7.4259 1.46719C7.24886 1.78692 7.10137 2.12213 6.98525 2.46866H6.16404C6.52177 2.06246 6.94908 1.72333 7.4259 1.46719ZM6.16404 8.47751H6.98525C7.10121 8.8241 7.24871 9.15933 7.4259 9.47899C6.94854 9.22366 6.52109 8.88442 6.16404 8.47751ZM11.597 9.47899C11.776 9.15953 11.9252 8.82429 12.0427 8.47751H12.8739C12.5124 8.88585 12.0798 9.22517 11.597 9.47899Z" fill="#F41112"/>
<path d="M11.3167 11.2064C10.4166 11.4894 9.46246 11.5565 8.53159 11.4023C7.60072 11.248 6.71926 10.8767 5.95859 10.3184C5.19793 9.76006 4.57944 9.03046 4.1532 8.18865C3.72696 7.34684 3.50496 6.41648 3.50518 5.47292C3.50538 5.06934 3.54563 4.66677 3.62536 4.27115C3.62536 4.171 3.67543 4.07085 3.70047 3.9707H1.50223C1.10382 3.9707 0.721722 4.12897 0.440002 4.41069C0.158283 4.69241 1.43217e-05 5.0745 1.43217e-05 5.47292V11.4818C-0.00162344 11.857 0.137257 12.2193 0.389324 12.4973C0.64139 12.7754 0.988386 12.949 1.36202 12.984L1.00149 14.366C0.974612 14.4635 0.977888 14.5669 1.01089 14.6625C1.04389 14.7581 1.10506 14.8414 1.18636 14.9016C1.26766 14.9618 1.36527 14.9959 1.46634 14.9995C1.56741 15.0031 1.66721 14.976 1.7526 14.9218L5.14259 12.984H10.0148C10.4132 12.984 10.7953 12.8257 11.077 12.544C11.3587 12.2623 11.517 11.8802 11.517 11.4818V11.1313L11.3167 11.2064Z" fill="#F41112"/>
</svg>
