<svg width="20" height="15" viewBox="0 0 20 15" fill="none" xmlns="http://www.w3.org/2000/svg">
<path fill-rule="evenodd" clip-rule="evenodd" d="M17.3601 0H2.07285C0.928465 0 0 0.962099 0 2.14286V12.8571C0 14.0379 0.928465 15 2.07285 15H17.3385C18.4829 15 19.4114 14.0379 19.4114 12.8571V2.14286C19.433 0.962099 18.5045 0 17.3601 0ZM5.89467 2.86443C7.06065 2.86443 7.98912 3.82653 7.98912 5.02915C7.98912 6.20991 7.06065 7.19388 5.89467 7.19388C4.72869 7.19388 3.80023 6.23178 3.80023 5.02915C3.80023 3.82653 4.75029 2.86443 5.89467 2.86443ZM9.24147 13.207H2.54788C2.15922 13.207 1.83534 12.9227 1.72738 12.551C1.96489 10.0146 3.73545 8.02478 5.89467 8.02478C8.05389 8.02478 9.82446 9.99271 10.062 12.551C9.9756 12.9227 9.65172 13.207 9.24147 13.207ZM16.6476 7.15015H10.4074C10.0188 7.15015 9.71649 6.82216 9.71649 6.42857C9.71649 6.03498 10.0188 5.707 10.4074 5.707H16.6476C17.0363 5.707 17.3385 6.03498 17.3385 6.42857C17.3601 6.82216 17.0363 7.15015 16.6476 7.15015ZM16.6476 4.28571H10.4074C10.0188 4.28571 9.71649 3.95773 9.71649 3.56414C9.71649 3.17055 10.0188 2.84257 10.4074 2.84257H16.6476C17.0363 2.84257 17.3385 3.17055 17.3385 3.56414C17.3601 3.95773 17.0363 4.28571 16.6476 4.28571Z" fill="#F41112"/>
</svg>
