<svg width="80" height="80" viewBox="0 0 80 80" fill="none" xmlns="http://www.w3.org/2000/svg">
<path d="M40 80C32.0888 80 24.3552 77.654 17.7772 73.2588C11.1992 68.8635 6.07234 62.6164 3.04484 55.3073C0.0173318 47.9983 -0.774802 39.9556 0.768607 32.1964C2.31202 24.4372 6.12164 17.3098 11.7157 11.7157C17.3098 6.12164 24.4372 2.31202 32.1964 0.768607C39.9556 -0.774802 47.9983 0.0173318 55.3073 3.04484C62.6164 6.07234 68.8635 11.1992 73.2588 17.7772C77.654 24.3552 80 32.0888 80 40C79.988 50.605 75.7699 60.7722 68.271 68.271C60.7722 75.7699 50.605 79.988 40 80ZM40 5.33335C33.1436 5.33335 26.4411 7.36651 20.7402 11.1757C15.0393 14.985 10.596 20.3991 7.97219 26.7337C5.34835 33.0682 4.66184 40.0385 5.99946 46.7631C7.33708 53.4878 10.6388 59.6648 15.487 64.513C20.3352 69.3613 26.5122 72.6629 33.2369 74.0006C39.9616 75.3382 46.9319 74.6517 53.2664 72.0278C59.6009 69.404 65.0151 64.9607 68.8243 59.2598C72.6335 53.5589 74.6667 46.8564 74.6667 40C74.6565 30.809 71.0009 21.9973 64.5018 15.4982C58.0028 8.99915 49.1911 5.34351 40 5.33335ZM35.2187 55.2187L61.8853 28.552C62.3711 28.0491 62.6399 27.3755 62.6338 26.6763C62.6277 25.9771 62.3473 25.3083 61.8529 24.8138C61.3584 24.3194 60.6896 24.039 59.9904 24.0329C59.2912 24.0268 58.6176 24.2956 58.1147 24.7813L33.3333 49.5624L21.8853 38.1147C21.6394 37.86 21.3451 37.6568 21.0198 37.5171C20.6944 37.3773 20.3445 37.3037 19.9904 37.3007C19.6363 37.2976 19.2852 37.3651 18.9575 37.4992C18.6297 37.6332 18.332 37.8312 18.0816 38.0816C17.8312 38.332 17.6332 38.6297 17.4992 38.9575C17.3651 39.2852 17.2976 39.6363 17.3007 39.9904C17.3038 40.3445 17.3773 40.6944 17.5171 41.0198C17.6568 41.3451 17.86 41.6394 18.1147 41.8853L31.448 55.2187C31.6955 55.4664 31.9894 55.6629 32.3129 55.7969C32.6364 55.931 32.9832 56 33.3333 56C33.6835 56 34.0303 55.931 34.3538 55.7969C34.6772 55.6629 34.9712 55.4664 35.2187 55.2187Z" fill="#525252"/>
</svg>
