<svg width="52" height="47" viewBox="0 0 52 47" fill="none" xmlns="http://www.w3.org/2000/svg">
<path fill-rule="evenodd" clip-rule="evenodd" d="M4.16749 15.9754H13.4286C14.1232 18.0591 15.5123 20.1429 17.133 21.532H7.40887V25.0049H44.4532V21.532H34.4975C36.3498 20.1429 37.5074 18.0591 38.4335 15.9754H47.4631C49.7783 15.9754 51.6305 17.8276 51.6305 20.1429V42.8325C51.6305 45.1478 49.7783 47 47.4631 47H4.16749C1.85222 47 0 45.1478 0 42.8325V20.1429C0 17.8276 1.85222 15.9754 4.16749 15.9754ZM25.931 0C31.9507 0 37.0443 5.0936 37.0443 11.1133C37.0443 17.3645 31.9507 22.4581 25.931 22.4581C19.6798 22.4581 14.5862 17.3645 14.5862 11.1133C14.5862 5.0936 19.6798 0 25.931 0ZM19.9113 13.6601L22.6897 13.4286C22.9212 14.8177 23.6158 15.7438 24.5419 15.9754V12.0394C22.4581 11.3448 20.3744 10.1872 20.3744 7.64039C20.3744 5.32512 22.4581 3.93596 24.5419 3.70443V2.08374H27.0887V3.70443C29.4039 3.93596 31.2562 5.32512 31.2562 8.10345H28.4778C28.2463 7.17734 27.7832 6.48276 27.0887 6.25123V9.49261C29.6355 10.1872 31.7192 11.1133 31.7192 14.3547C31.7192 17.133 29.6355 18.2906 27.0887 18.7537V20.3744H24.5419V18.7537C21.9951 18.2906 20.3744 16.67 19.9113 13.6601ZM27.0887 16.2069C28.0148 15.9754 28.9409 15.2808 28.9409 14.3547C28.9409 13.4286 28.0148 12.9655 27.0887 12.5025V16.2069ZM24.5419 6.25123C23.8473 6.48276 23.3842 6.71429 23.3842 7.40887C23.3842 8.10345 23.8473 8.5665 24.5419 8.79803V6.25123Z" fill="#525252"/>
</svg>
