<svg width="59" height="47" viewBox="0 0 59 47" fill="none" xmlns="http://www.w3.org/2000/svg">
<path fill-rule="evenodd" clip-rule="evenodd" d="M9.95952 18.1289H6.15476V1.45508H3.91667V18.1289H0V43.7551C3.35714 43.7551 6.60238 43.7551 9.95952 43.7551V18.1289Z" fill="#525252"/>
<path fill-rule="evenodd" clip-rule="evenodd" d="M24.6189 19.0234H20.8142V35.5853H18.5761V19.0234H14.6594V8.61621C18.0166 8.61621 21.2618 8.61621 24.6189 8.61621V19.0234Z" fill="#525252"/>
<path fill-rule="evenodd" clip-rule="evenodd" d="M42.8594 3.02143H38.9428V0H36.8166V3.02143H32.8999V28.7595H36.8166V31.2214H38.9428V28.7595H42.8594V3.02143Z" fill="#525252"/>
<path fill-rule="evenodd" clip-rule="evenodd" d="M58.8619 18.9117H55.0571V15.7783H52.819V18.9117H48.9023V44.5378H52.819V46.9997H55.0571V44.5378H58.8619V18.9117Z" fill="#525252"/>
</svg>
