<svg width="47" height="47" viewBox="0 0 47 47" fill="none" xmlns="http://www.w3.org/2000/svg">
<path d="M35.756 8.02507C35.756 6.9224 35.3256 5.88436 34.5457 5.10446L30.6515 1.21025C29.8824 0.441084 28.7907 0 27.7042 0H27.4675V8.26172H35.7561L35.756 8.02507Z" fill="#525252"/>
<path d="M25.1466 28.4145C25.4101 27.6144 25.87 26.8695 26.4697 26.2657L35.7928 16.9802V11.0156H26.1174C25.3563 11.0156 24.7852 10.3998 24.7852 9.63867V0H4.13086C1.85301 0 0 1.85301 0 4.13086V42.8691C0 45.147 1.85301 47 4.13086 47H31.6252C33.9031 47 35.7928 45.147 35.7928 42.8691V32.5924L34.2796 34.0688C33.6665 34.6766 32.9485 35.119 32.1389 35.3893L27.7607 36.851L27.0937 36.8874C25.991 36.8874 24.9475 36.3508 24.2995 35.4526C23.6567 34.5584 23.4819 33.3993 23.8315 32.3518L25.1466 28.4145ZM6.88477 24.7852H20.6096C21.3707 24.7852 21.9865 25.401 21.9865 26.1621C21.9865 26.9232 21.3707 27.5391 20.6096 27.5391H6.88477C6.12368 27.5391 5.50781 26.9232 5.50781 26.1621C5.50781 25.401 6.12368 24.7852 6.88477 24.7852ZM5.50781 20.6543C5.50781 19.8932 6.12368 19.2773 6.88477 19.2773H20.6096C21.3707 19.2773 21.9865 19.8932 21.9865 20.6543C21.9865 21.4154 21.3707 22.0312 20.6096 22.0312H6.88477C6.12368 22.0312 5.50781 21.4154 5.50781 20.6543ZM5.50781 31.6699C5.50781 30.9088 6.12368 30.293 6.88477 30.293H20.6096C21.3707 30.293 21.9865 30.9088 21.9865 31.6699C21.9865 32.431 21.3707 33.0469 20.6096 33.0469H6.88477C6.12368 33.0469 5.50781 32.431 5.50781 31.6699ZM26.1174 38.5547C26.8785 38.5547 27.4944 39.1706 27.4944 39.9316C27.4944 40.6927 26.8786 41.3086 26.1174 41.3086H17.8557C17.0946 41.3086 16.4787 40.6927 16.4787 39.9316C16.4787 39.1706 17.0946 38.5547 17.8557 38.5547H26.1174ZM6.88477 16.5234C6.12368 16.5234 5.50781 15.9076 5.50781 15.1465C5.50781 14.3854 6.12368 13.7695 6.88477 13.7695H26.1174C26.8785 13.7695 27.4944 14.3854 27.4944 15.1465C27.4944 15.9076 26.8785 16.5234 26.1174 16.5234H6.88477Z" fill="#525252"/>
<path d="M27.641 29.6328L26.4431 33.2268C26.2635 33.7651 26.7758 34.2773 27.3142 34.0975L30.906 32.8978L27.641 29.6328Z" fill="#525252"/>
<path d="M38.3351 18.2959L29.2666 27.3644L33.1776 31.2754C35.2272 29.2254 39.2154 25.2368 42.2457 22.2064L38.3351 18.2959Z" fill="#525252"/>
<path d="M46.1908 14.3462C45.7068 13.8594 44.9941 13.5811 44.2383 13.5811C43.4825 13.5811 42.7699 13.8594 42.2831 14.3476L40.2822 16.3485L44.1926 20.2588C45.288 19.1633 46.0451 18.4062 46.1937 18.2577C47.2693 17.1805 47.2692 15.4259 46.1908 14.3462Z" fill="#525252"/>
<path d="M46.1936 18.2588C46.1937 18.2588 46.1937 18.2587 46.1938 18.2586C46.1976 18.2548 46.1993 18.2531 46.2024 18.25C46.1993 18.2532 46.1976 18.2549 46.1936 18.2588Z" fill="#525252"/>
<path d="M46.2024 18.2515C46.2072 18.2467 46.2128 18.2412 46.2156 18.2383C46.2127 18.2413 46.2072 18.2467 46.2024 18.2515Z" fill="#525252"/>
<path d="M46.2144 18.2378C46.224 18.2281 46.2242 18.2279 46.2144 18.2378V18.2378Z" fill="#525252"/>
</svg>
